<svg xmlns="http://www.w3.org/2000/svg" viewBox="0 0 1308.09 1303.38"><defs><style>.cls-1{fill:#ec9e15;}.cls-2{fill:#fdb62f;}.cls-3{fill:#a55e00;}.cls-4{fill:#995701;}.cls-5{fill:#844b02;}.cls-6{fill:#fcc24c;}.cls-7{fill:#dea42e;}.cls-8{fill:#fce06a;}.cls-9{fill:#fff;}.cls-10{fill:#ff9f70;}.cls-11{fill:#efefef;}.cls-12{fill:#f4f4f4;}.cls-13{fill:#ffbd8e;}.cls-14{fill:#e18152;}.cls-15{fill:#13bc9c;}.cls-16{fill:#79f2c1;}.cls-17{fill:#ffa700;}.cls-18{fill:#4b6275;}.cls-19{fill:#556c80;}.cls-20{fill:#718799;}.cls-21{fill:#62798c;}.cls-22{fill:#e26a61;}.cls-23{fill:#494949;}.cls-24{fill:#424242;}.cls-25{fill:#595959;}.cls-26{fill:#69e1f4;}.cls-27{fill:#73f2ff;}.cls-28{fill:#5ed4ef;}.cls-29{fill:#333;}.cls-30{fill:#777;}.cls-31{fill:none;stroke:#333;stroke-miterlimit:10;stroke-width:3px;}</style></defs><title>graph_1</title><g id="Capa_2" data-name="Capa 2"><g id="Capa_1-2" data-name="Capa 1"><circle class="cls-1" cx="213.7" cy="52.6" r="13.2"/><path class="cls-2" d="M217.28,2.61,220.66,13a3.76,3.76,0,0,0,3.58,2.61h10.92a3.77,3.77,0,0,1,2.21,6.82l-8.83,6.42A3.75,3.75,0,0,0,227.18,33l3.37,10.38a3.77,3.77,0,0,1-2.42,4.75,3.83,3.83,0,0,1-3.39-.53l-8.83-6.42a3.77,3.77,0,0,0-4.43,0l-8.83,6.42a3.77,3.77,0,0,1-5.8-4.22L200.22,33a3.74,3.74,0,0,0-1.37-4.21L190,22.41a3.77,3.77,0,0,1,2.21-6.82h10.91A3.77,3.77,0,0,0,206.74,13l3.37-10.37a3.77,3.77,0,0,1,7.17,0Z"/><path class="cls-1" d="M225,116.7l-4.53,3.77-14.32.79-3.77-4.56-7.55-52.79h37.71Z"/><path class="cls-2" d="M194.84,63.91l7.55,52.79,1.8,3.77,15.44,1.07.85-4.84,6.42-52.79Z"/><path class="cls-3" d="M232.55,158.18H194.84V124.24l7.55-7.54H225l7.54,7.54Z"/><path class="cls-4" d="M187.3,169.49l7.54-15.08h37.71l7.54,15.08-7.54,4.4-37.71-.63Z"/><path class="cls-5" d="M194.84,135.56h11.32v7.54H194.84Z"/><path class="cls-5" d="M213.7,135.56h18.85v7.54H213.7Z"/><path class="cls-5" d="M187.3,169.49h52.79v15.08H187.3Z"/><path class="cls-6" d="M103.39,0c6.61,0,32.78.77,33.18,7.37q0,.42,0,.84V9.54a13.54,13.54,0,0,1,13.49,14.6l-2.3,29.36h-87L58.51,24.14c2.36-7.49,5.6-14.6,13.49-14.6V8.21q0-.42,0-.84C72.43.77,96.77,0,103.39,0Z"/><path class="cls-7" d="M138.49,9.69a14.83,14.83,0,0,1,5.13,12.47l-2.3,31.34h6.47l2.3-29.36A13.52,13.52,0,0,0,138.49,9.69Z"/><path class="cls-8" d="M70.11,9.69A14.83,14.83,0,0,0,65,22.16l2.3,31.34H60.82L58.51,24.14A13.53,13.53,0,0,1,70.11,9.69Z"/><path class="cls-9" d="M151.24,118.93l-10.83,0-19.36,0c0-.31,0-.62,0-.94V87.45H87.62v30.46c0,.32,0,.62,0,.94l-19.41,0H57.39A21.17,21.17,0,0,0,36.19,140l-.06,43.56H172.32l.06-43.38a21.16,21.16,0,0,0-21.14-21.2Z"/><path class="cls-10" d="M87.62,87.45h33.43L121,140.66l-16.64,34.72L87.62,140.66Z"/><path class="cls-11" d="M151.24,118.93h-7.43A21.16,21.16,0,0,1,165,140.12l0,43.39h7.42l.06-43.38A21.16,21.16,0,0,0,151.24,118.93Z"/><path class="cls-12" d="M57.39,118.81h7.43A21.16,21.16,0,0,0,43.62,140l-.06,43.55H36.13L36.19,140A21.17,21.17,0,0,1,57.39,118.81Z"/><path class="cls-13" d="M68.19,47.69H65.61a12.07,12.07,0,0,0,0,24.13h2.58Z"/><path class="cls-14" d="M143,47.69h-2.58V71.82H143a12.07,12.07,0,0,0,0-24.13Z"/><path class="cls-10" d="M104.29,109a36.34,36.34,0,0,1-36.1-36.57V47.13a36.1,36.1,0,1,1,72.2,0V72.45A36.34,36.34,0,0,1,104.29,109Z"/><path class="cls-14" d="M104.29,10.56a34.72,34.72,0,0,0-4.1.25,36.39,36.39,0,0,1,32,36.32V72.45a36.39,36.39,0,0,1-32,36.32,34.72,34.72,0,0,0,4.1.25,36.34,36.34,0,0,0,36.1-36.57V47.13a36.34,36.34,0,0,0-36.1-36.57Z"/><path class="cls-13" d="M104.29,10.56a34.59,34.59,0,0,1,4.1.25,36.39,36.39,0,0,0-32,36.32V72.45a36.39,36.39,0,0,0,32,36.32,34.59,34.59,0,0,1-4.1.25,36.34,36.34,0,0,1-36.1-36.57V47.13a36.34,36.34,0,0,1,36.1-36.57Z"/><path class="cls-12" d="M87.62,110.76v29.9l16.71,34.72-30.1-32.82,7.29-9.72-13.47-.13,5.63-14.79Z"/><path class="cls-12" d="M121,110.76v29.9l-16.71,34.72,30.1-32.82-7.29-9.72,13.47-.13-5.63-14.79Z"/><path class="cls-6" d="M74,23.84s3.23-8.44,12.22-1.75c9.29,22,45.1-21.24,56.27,11.19,0,0-5.8-28.4-33.65-28.4S74,23.84,74,23.84Z"/><path class="cls-15" d="M704.38,197.06a4.91,4.91,0,0,1-4.92-4.91V149.89a4.92,4.92,0,1,1,9.83,0v42.26A4.91,4.91,0,0,1,704.38,197.06Z"/><path class="cls-15" d="M722.12,202a4.92,4.92,0,0,1-4.21-7.45l18.35-30.49a4.91,4.91,0,1,1,8.42,5.07l-18.34,30.49A4.93,4.93,0,0,1,722.12,202Z"/><path class="cls-15" d="M732.51,211.64a4.92,4.92,0,0,1-2.84-8.93l24.09-17a4.91,4.91,0,0,1,5.66,8l-24.08,17A4.87,4.87,0,0,1,732.51,211.64Z"/><path class="cls-15" d="M737.38,221.71a4.92,4.92,0,0,1-1.39-9.63l19.48-5.77a4.92,4.92,0,0,1,2.8,9.43l-19.49,5.77A4.79,4.79,0,0,1,737.38,221.71Z"/><path class="cls-15" d="M686.63,202a4.91,4.91,0,0,1-4.21-2.38l-18.35-30.49a4.91,4.91,0,1,1,8.42-5.07l18.35,30.49a4.92,4.92,0,0,1-4.21,7.45Z"/><path class="cls-15" d="M676.24,211.64a4.9,4.9,0,0,1-2.83-.9l-24.08-17a4.92,4.92,0,0,1,5.67-8l24.08,17a4.92,4.92,0,0,1-2.84,8.93Z"/><path class="cls-15" d="M671.37,221.71a4.88,4.88,0,0,1-1.4-.2l-19.48-5.77a4.92,4.92,0,1,1,2.79-9.43l19.48,5.77a4.92,4.92,0,0,1-1.39,9.63Z"/><polyline class="cls-15" points="669.98 327.08 669.98 226.55 738.77 226.55 738.77 354.6"/><polygon class="cls-16" points="765.77 344.83 777.1 334.49 745.65 291.25 681.77 291.25 651.31 277.65 617.4 162.01 602.16 162.01 620.84 315.82 606.09 334.29 628.7 362.01 628.7 381.29 707.32 381.29 784.97 381.29 765.77 344.83"/><polyline class="cls-15" points="636.98 295.59 603.85 175.87 620.84 315.81"/><polygon class="cls-15" points="651.31 277.65 621.8 353.55 606.09 334.29 651.31 277.65"/><polygon class="cls-15" points="647.2 263.66 651.31 277.65 620.84 315.82 616.88 283.18 647.2 263.66"/><path class="cls-15" d="M617.4,117.94V162H600.34a16.24,16.24,0,0,1-3.85-.47,15.88,15.88,0,0,1-12-15.4v-28.2Z"/><polygon class="cls-15" points="664.71 381.29 715.82 291.25 745.65 291.25 679.45 381.29 664.71 381.29"/><path class="cls-16" d="M617.4,142.23V162H600.34a16.24,16.24,0,0,1-3.85-.47V151.48a9.25,9.25,0,0,1,9.25-9.25Z"/><polyline class="cls-17" points="583.2 110.41 577.58 69.74 592.53 81.42 603.53 60.22 610.64 80.13 624.3 69.74 619.54 110.41"/><path class="cls-16" d="M704.38,192.15h0A34.4,34.4,0,0,0,670,226.54v16.71a34.4,34.4,0,0,0,34.4,34.4h0a34.4,34.4,0,0,0,34.39-34.4V226.54A34.39,34.39,0,0,0,704.38,192.15Z"/><path class="cls-15" d="M681.77,243.25V226.54a34.41,34.41,0,0,1,28.5-33.88A34.39,34.39,0,0,0,670,226.54v16.71a34.39,34.39,0,0,0,40.29,33.89A34.41,34.41,0,0,1,681.77,243.25Z"/><path class="cls-15" d="M738.78,226.55v16.7l-.19,0A34.4,34.4,0,0,0,670,245.05c0-.6,0-1.2,0-1.8v-16.7a34.4,34.4,0,1,1,68.8,0Z"/><rect class="cls-16" x="570.47" y="110.08" width="60.94" height="15.73"/><rect class="cls-15" x="570.47" y="110.08" width="26.1" height="15.73"/><path class="cls-15" d="M724.19,234.49l-18.69-4.38h0l-.4-.08h-.13a4.9,4.9,0,0,0-.54,0,4.56,4.56,0,0,0-.54,0h-.13l-.41.08h0l-18.7,4.38a4.91,4.91,0,0,0,2.24,9.57l12.66-3v7.35a4.92,4.92,0,1,0,9.83,0V241.1l12.66,3a4.91,4.91,0,1,0,2.24-9.57Z"/><polyline class="cls-15" points="765.77 344.83 738.66 369.67 770.34 353.51"/><polyline class="cls-15" points="681.77 291.25 662.65 318.56 669.98 285.99"/><path class="cls-18" d="M194,731h34.69v7.71H194Z"/><path class="cls-19" d="M232.57,692.43l11.56,84.79h-7.71l-16.75-84.79Z"/><path class="cls-18" d="M194,569.09h30.84v15.42H194Z"/><path class="cls-20" d="M190.17,665.45h42.4v23.13h-42.4Z"/><path class="cls-21" d="M178.61,584.51h61.67v38.54H178.61Z"/><circle class="cls-20" cx="194.02" cy="569.09" r="15.42"/><circle class="cls-20" cx="224.86" cy="569.09" r="15.42"/><circle class="cls-18" cx="194.02" cy="569.09" r="3.85"/><circle class="cls-18" cx="224.86" cy="569.09" r="3.85"/><path class="cls-22" d="M221,603.78h7.71v7.71H221Z"/><path class="cls-22" d="M205.59,603.78h7.71v7.71h-7.71Z"/><path class="cls-19" d="M240.28,615.34l23.12,11.57h15.42V580.66H263.4l-23.12,11.56Z"/><path class="cls-19" d="M201.73,638.47h15.42v27H201.73Z"/><path class="cls-19" d="M190.17,692.43l-11.56,84.79h7.71l16.22-84.79Z"/><path class="cls-18" d="M263.4,626.91V580.66l-23.12,11.56v23.12Z"/><path class="cls-20" d="M194,623.05h30.84v3.86a15.42,15.42,0,0,1-30.84,0v-3.86Z"/><path class="cls-6" d="M103.15,589.31c6.77,0,33.51.78,33.92,7.53,0,.29,0,.57,0,.86v1.36A13.84,13.84,0,0,1,150.89,614l-2.35,30H59.64l-2.36-30c2.41-7.66,5.72-14.92,13.79-14.92V597.7c0-.29,0-.58,0-.86.41-6.75,25.29-7.53,32.05-7.53Z"/><path class="cls-7" d="M139,599.21A15.17,15.17,0,0,1,144.28,612l-2.36,32h6.62l2.35-30A13.83,13.83,0,0,0,139,599.21Z"/><path class="cls-8" d="M69.14,599.21A15.18,15.18,0,0,0,63.89,612l2.36,32H59.64l-2.36-30A13.84,13.84,0,0,1,69.14,599.21Z"/><path class="cls-23" d="M152.06,710.87H141l-19.79,0c0-.32,0-.63,0-1V678.69H87v31.14c0,.33,0,.64,0,1l-19.83,0H56.13a21.64,21.64,0,0,0-21.67,21.61l-.05,44.52H173.62l.06-44.34a21.66,21.66,0,0,0-21.62-21.67Z"/><path class="cls-10" d="M87,678.69h34.18l-.08,54.39-17,35.5L87,733.08Z"/><path class="cls-24" d="M152.06,710.87h-7.59a21.64,21.64,0,0,1,21.61,21.67L166,776.88h7.59l.06-44.34A21.66,21.66,0,0,0,152.06,710.87Z"/><path class="cls-25" d="M56.13,710.75h7.6a21.63,21.63,0,0,0-21.67,21.61L42,776.88H34.41l.05-44.52A21.64,21.64,0,0,1,56.13,710.75Z"/><path class="cls-13" d="M67.18,638.06H64.54a12.33,12.33,0,1,0,0,24.66h2.64Z"/><path class="cls-14" d="M143.61,638.06H141v24.66h2.63a12.33,12.33,0,0,0,0-24.66Z"/><path class="cls-10" d="M104.08,700.74a37.14,37.14,0,0,1-36.9-37.38V637.48a36.9,36.9,0,1,1,73.8,0v25.88A37.14,37.14,0,0,1,104.08,700.74Z"/><path class="cls-14" d="M104.08,600.11a38.83,38.83,0,0,0-4.2.24,37.21,37.21,0,0,1,32.71,37.13v25.88a37.2,37.2,0,0,1-32.71,37.13,36.43,36.43,0,0,0,4.2.25A37.14,37.14,0,0,0,141,663.36V637.48a37.14,37.14,0,0,0-36.9-37.37Z"/><path class="cls-13" d="M104.08,600.11a38.79,38.79,0,0,1,4.19.24,37.22,37.22,0,0,0-32.71,37.13v25.88a37.21,37.21,0,0,0,32.71,37.13,36.39,36.39,0,0,1-4.19.25,37.14,37.14,0,0,1-36.9-37.38V637.48a37.14,37.14,0,0,1,36.9-37.37Z"/><path class="cls-25" d="M87,702.52v30.56l17.09,35.5L73.34,735l7.46-9.93L67,725l5.76-15.13Z"/><path class="cls-25" d="M121.13,702.52v30.56L104,768.58,134.82,735l-7.46-9.93,13.77-.13-5.75-15.13Z"/><path class="cls-6" d="M73.08,613.68s3.3-8.63,12.5-1.79c9.49,22.47,46.09-21.71,57.51,11.44,0,0-5.93-29-34.4-29S73.08,613.68,73.08,613.68Z"/><path class="cls-26" d="M1308.09,112.36c-13.78,0-13.78-12.64-27.57-12.64s-13.79,12.64-27.57,12.64-13.79-12.64-27.58-12.64-13.78,12.64-27.57,12.64S1184,99.72,1170.23,99.72s-13.78,12.64-27.57,12.64-13.78-12.64-27.57-12.64v31.89c13.79,0,13.79,12.64,27.57,12.64s13.79-12.64,27.57-12.64,13.79,12.64,27.57,12.64,13.79-12.64,27.57-12.64,13.79,12.64,27.58,12.64,13.78-12.64,27.57-12.64,13.79,12.64,27.57,12.64"/><path class="cls-27" d="M1308.09,80.47c-13.78,0-13.78-12.64-27.57-12.64S1266.73,80.47,1253,80.47s-13.79-12.64-27.58-12.64-13.78,12.64-27.57,12.64S1184,67.83,1170.23,67.83s-13.78,12.64-27.57,12.64-13.78-12.64-27.57-12.64V99.72c13.79,0,13.79,12.64,27.57,12.64s13.79-12.64,27.57-12.64,13.79,12.64,27.57,12.64,13.79-12.64,27.57-12.64,13.79,12.64,27.58,12.64,13.78-12.64,27.57-12.64,13.79,12.64,27.57,12.64"/><path class="cls-28" d="M1308.09,144.25c-13.78,0-13.78-12.64-27.57-12.64s-13.79,12.64-27.57,12.64-13.79-12.64-27.58-12.64-13.78,12.64-27.57,12.64-13.78-12.64-27.57-12.64-13.78,12.64-27.57,12.64-13.78-12.64-27.57-12.64V163.5c13.79,0,13.79,12.64,27.57,12.64s13.79-12.64,27.57-12.64,13.79,12.64,27.57,12.64,13.79-12.64,27.57-12.64,13.79,12.64,27.58,12.64,13.78-12.64,27.57-12.64,13.79,12.64,27.57,12.64"/><path class="cls-21" d="M676.42,1120.87v21.77a2,2,0,0,1-2,2H650a81.5,81.5,0,0,1-4.24,16l21.12,12.21a2,2,0,0,1,.73,2.73l-10.9,18.85a2,2,0,0,1-2.73.73l-21-12.16a81.38,81.38,0,0,1-12,12l12,21a2,2,0,0,1-.75,2.73l-18.91,10.78a2,2,0,0,1-2.73-.74L598.69,1208a80.87,80.87,0,0,1-15.73,4.3v23.83a2,2,0,0,1-2,2H559.19a2,2,0,0,1-2-2v-23.61a81.26,81.26,0,0,1-16.44-4.26L529,1228.54a2,2,0,0,1-2.73.73l-18.85-10.9a2,2,0,0,1-.73-2.73l11.65-20.15a81.87,81.87,0,0,1-11.93-11.76l-20,11.66a2,2,0,0,1-1.52.2,2,2,0,0,1-1.22-.92l-10.95-18.82a2,2,0,0,1,.72-2.74l19.9-11.58a81.46,81.46,0,0,1-4.57-16.88h-23a2,2,0,0,1-2-2v-21.78a2,2,0,0,1,2-2h23a81.82,81.82,0,0,1,4.49-16.66l-19.93-11.52a2,2,0,0,1-.93-1.22,2,2,0,0,1,.2-1.52l10.9-18.85a2,2,0,0,1,2.73-.73l20.06,11.6a82.64,82.64,0,0,1,12.47-12.27l-11.52-20.21A2,2,0,0,1,507,1046a2,2,0,0,1,.93-1.21L526.86,1034a2,2,0,0,1,2.73.75l11.62,20.38a80.43,80.43,0,0,1,16-4.08v-23.62a2,2,0,0,1,2-2H581a2,2,0,0,1,2,2v23.83a81,81,0,0,1,16.19,4.48l12-20.75a2,2,0,0,1,2.74-.73l18.85,10.9a2,2,0,0,1,.73,2.73l-12.11,21a81.34,81.34,0,0,1,11.42,11.53l21-12.22a2,2,0,0,1,2.73.72l11,18.82a2,2,0,0,1,.2,1.52,1.94,1.94,0,0,1-.92,1.21l-21.08,12.27a80.85,80.85,0,0,1,4.32,16.2h24.44A2,2,0,0,1,676.42,1120.87Zm-4,19.77v-17.77H638.63l-1.83,1.83v15.66h11.49a2,2,0,0,1,1,.28Zm-18.19,50,8.89-15.39-30.83-17.83-8.78,15.18,10.07,5.82a2,2,0,0,1,.71.69ZM663,1088l-9-15.36-30.66,17.85,8.82,15.15,9.86-5.74a2,2,0,0,1,.95-.27Zm-17.07,56.69H634.8a2,2,0,0,1-2-2v-3.34H618.87a2,2,0,0,1-2-2v-3.83h-2.66v3.83a2,2,0,0,1-2,2h-9.88a2,2,0,0,1-2-2v-3.83h-3.47v3.83a2,2,0,0,1-2,2h-7.6l-.25,1.06h.81a1.9,1.9,0,0,1,.58.09l5.25,1.61a2,2,0,0,1,1.39,1.65l.4,3c.41,3,.71,9.4.73,9.67a2,2,0,0,1-1.45,2l-16.43,4.74a2,2,0,0,1-1.88-.43l-2-1.81h-9.78l-2.05,1.81a2,2,0,0,1-1.88.43l-16.44-4.74a2,2,0,0,1-1.44-2c0-.27.31-6.62.72-9.67l.41-3a2,2,0,0,1,1.39-1.65l5.24-1.61a2,2,0,0,1,.59-.09h.81l-.74-3.17a1.74,1.74,0,0,1-.06-.45v-10.53a1.68,1.68,0,0,1,.06-.45l.74-3.17h-.81a2,2,0,0,1-.59-.09l-5.24-1.62a2,2,0,0,1-1.39-1.64l-.41-3c-.41-3-.71-9.41-.72-9.68a2,2,0,0,1,1.45-2l16.43-4.74a2,2,0,0,1,1.88.42l2.05,1.82h9.78l2-1.82a2,2,0,0,1,1.88-.42l16.43,4.74a2,2,0,0,1,1.45,2c0,.27-.31,6.63-.72,9.68l-.41,3a2,2,0,0,1-1.39,1.64l-5.24,1.62a2,2,0,0,1-.59.09H587l.38,1.62h7.47a2,2,0,0,1,2,2v3.26h3.48v-3.26a2,2,0,0,1,2-2h9.88a2,2,0,0,1,2,2v3.26h2.65v-3.26a2,2,0,0,1,2-2H632.8v-.62a2,2,0,0,1,.58-1.42l3-3a2,2,0,0,1,1.42-.58h8.09a77.07,77.07,0,0,0-3.73-13.88l-9.66,5.62a2,2,0,0,1-1.52.21,2,2,0,0,1-1.22-.93l-11-18.82a2,2,0,0,1-.27-1.15,2.42,2.42,0,0,1,.06-.65,2,2,0,0,1,.93-1.21l9.59-5.58a78.77,78.77,0,0,0-9.8-9.87l-5.69,9.85a2,2,0,0,1-2.73.73l-16.26-9.4a2,2,0,0,1-.93-1.22l-1.09-4.1a2.73,2.73,0,0,1,.2-1.8l4.17-7.22a77.35,77.35,0,0,0-14-3.87V1067a2,2,0,0,1-2,2H562.19a2,2,0,0,1-1.42-.58l-3-3a2,2,0,0,1-.58-1.42v-9a77.37,77.37,0,0,0-13.84,3.52l5.86,10.27a2,2,0,0,1,.26,1.13,2,2,0,0,1-1,1.88l-16.31,9.3a1.93,1.93,0,0,1-1.52.19l-4.1-1.12a2,2,0,0,1-1.2-.93l-4.61-8.09a78.37,78.37,0,0,0-10.81,10.59l10.57,6.11a2,2,0,0,1,1,1.88,2.09,2.09,0,0,1-.27,1.14l-10.9,18.85a2,2,0,0,1-2.73.73l-10.86-6.28a77.22,77.22,0,0,0-3.9,14.35h9.52a2,2,0,0,1,1.41.58l3,3a2,2,0,0,1,.59,1.42v19.05a2,2,0,0,1-2,2H492.79a77.72,77.72,0,0,0,3.94,14.62l10.92-6.36a2,2,0,0,1,2.74.72l11,18.82a1.93,1.93,0,0,1,.27,1.14,2,2,0,0,1-1,1.88l-10.71,6.23a77.33,77.33,0,0,0,10.35,10.2l4.76-8.24a2,2,0,0,1,1.22-.93l4.09-1.09a2,2,0,0,1,1.52.2l16.26,9.39a2,2,0,0,1,.93,1.22,1.85,1.85,0,0,1,.06.66,2,2,0,0,1-.26,1.14l-6.06,10.48a77.42,77.42,0,0,0,14.41,3.72v-9.24a2,2,0,0,1,.58-1.42l3-3a2,2,0,0,1,1.42-.58H581a2,2,0,0,1,2,2v12a77.73,77.73,0,0,0,13.73-3.76l-4.27-7.48a2,2,0,0,1-.26-1.13,2.19,2.19,0,0,1,.07-.67l1.12-4.09a2,2,0,0,1,.94-1.21l16.31-9.3a2,2,0,0,1,2.73.75l5.74,10.07A78.54,78.54,0,0,0,629.42,1181l-9.76-5.64a2,2,0,0,1-.94-1.22,2.35,2.35,0,0,1-.06-.65,2,2,0,0,1,.27-1.15l10.9-18.85a2,2,0,0,1,2.73-.73l9.76,5.64A78.61,78.61,0,0,0,645.93,1144.64Zm-13.13-9.34v-7.09H620.87v7.09Zm-15.39-67.66,11.58-20-15.38-8.89-16.87,29.16.62,2.31,13.81,8,5.75-10A2.06,2.06,0,0,1,617.41,1067.64Zm11.08,148.62-17.65-30.94-13.85,7.9-.63,2.3,5.07,8.9a2.08,2.08,0,0,1,.25.71L613,1225.07Zm-18.28-81v-7.09h-5.88v7.09Zm-17.35,0v-7.09H588v7.09Zm-.77-27.34-13.85-4-1.8,1.59a2,2,0,0,1-1.33.5h-3.64v1.7l2,0a1.91,1.91,0,0,1,1,.28l2.92,1.71,0,0,1.67,1a1.91,1.91,0,0,1,.55.47l5.85,7.32h2.07l3.73-1.15.23-1.73C591.75,1113.72,592,1110.05,592.09,1108Zm-13.85,51,13.85-4c-.11-2.09-.34-5.76-.61-7.75l-.23-1.73-3.73-1.15h-2.07l-5.85,7.32a1.91,1.91,0,0,1-.55.47l-1.65,1-.09.05-2.9,1.71a2,2,0,0,1-1,.27l-2,0v1.7h3.65a2,2,0,0,1,1.32.5Zm5.56-22.48v-3h-8.66v6.44l2.3,8.07,5.21-6.51Zm0-7v-3l-1.15-5-5.21-6.51-2.31,8.07v6.43h8.67ZM579,1234.1v-35.62H563l-1.82,1.83v33.79Zm0-169.35v-35.34H561.19v33.51l1.82,1.83Zm-7.75,57.46,2.78-9.74-1.16-.68-3.36-.09-3.37.09-1.16.68,2.79,9.74a2,2,0,0,1,.07.55v17.43a2,2,0,0,1-.07.55l-2.79,9.74,1.17.68,3.36.09,3.36-.09,1.16-.68-2.78-9.74a2.08,2.08,0,0,1-.07-.55v-17.43A2,2,0,0,1,571.21,1122.21Zm-3.74,34.69v-1.7l-2,0a1.91,1.91,0,0,1-1-.28l-2.9-1.7-.09-.05-1.65-1a1.91,1.91,0,0,1-.55-.47l-5.85-7.32h-2.07l-3.73,1.15-.23,1.73c-.27,2-.5,5.66-.61,7.75l13.85,4,1.8-1.59a2,2,0,0,1,1.32-.5Zm0-49.15v-1.7h-3.65a2,2,0,0,1-1.32-.5l-1.8-1.59-13.85,4c.11,2.1.34,5.77.6,7.76l.24,1.73,3.73,1.15h2.07l5.85-7.32a1.91,1.91,0,0,1,.55-.47l1.67-1,0,0,2.92-1.71a2,2,0,0,1,1-.28Zm-3.67,32.16v-6.44h-8.66v3l1.15,5,5.21,6.51Zm0-10.44V1123l-2.3-8.07-5.21,6.51-1.15,5v3Zm-19.17-60.29-17.52-30.74-15.45,8.81,11,19.33a1.93,1.93,0,0,1,.49.57l5.23,9.17,2.49.69ZM538,1204.7l6.24-10.8L530.57,1186l-2.5.66-16.92,29.26,15.39,8.9,11.22-19.4A1.83,1.83,0,0,1,538,1204.7Zm-21.25-31.91-8.82-15.15-30.79,17.92,8.94,15.36,18.93-11a2,2,0,0,1,.7-.7Zm-8.9-67,8.78-15.18-30.72-17.75-8.9,15.38,18.85,10.9a2,2,0,0,1,.95.27Zm-4.51,34.59V1124.7l-1.83-1.83H467.73v17.77H489.4a2,2,0,0,1,1-.28Z"/><path class="cls-20" d="M672.42,1122.87v17.77H649.31a2,2,0,0,0-1-.28H636.8V1124.7l1.83-1.83Z"/><path class="cls-20" d="M663.12,1175.29l-8.89,15.39-19.94-11.53a2,2,0,0,0-.71-.69l-10.07-5.82,8.78-15.18Z"/><path class="cls-20" d="M654.05,1072.59l9,15.36-20,11.63a2,2,0,0,0-.95.27l-9.86,5.74-8.82-15.15Z"/><rect class="cls-20" x="620.87" y="1128.21" width="11.93" height="7.09"/><path class="cls-20" d="M629,1047.6l-11.58,20a2.06,2.06,0,0,0-.49.57l-5.75,10-13.81-8-.62-2.31,16.87-29.16Z"/><path class="cls-20" d="M610.84,1185.32l17.65,30.94L613,1225.07l-11.36-19.94a2.08,2.08,0,0,0-.25-.71l-5.07-8.9.63-2.3Z"/><rect class="cls-20" x="604.33" y="1128.21" width="5.88" height="7.09"/><rect class="cls-20" x="588.03" y="1128.21" width="4.83" height="7.09"/><path class="cls-20" d="M578.24,1104l13.85,4c-.12,2.09-.34,5.76-.61,7.75l-.23,1.73-3.73,1.15h-2.07l-5.85-7.32a1.91,1.91,0,0,0-.55-.47l-1.67-1,0,0-2.92-1.71a1.91,1.91,0,0,0-1-.28l-2,0v-1.7h3.64a2,2,0,0,0,1.33-.5Z"/><path class="cls-20" d="M592.09,1155l-13.85,4-1.8-1.59a2,2,0,0,0-1.32-.5h-3.65v-1.7l2,0a2,2,0,0,0,1-.27l2.9-1.71.09-.05,1.65-1a1.91,1.91,0,0,0,.55-.47l5.85-7.32h2.07l3.73,1.15.23,1.73C591.75,1149.23,592,1152.9,592.09,1155Z"/><polygon class="cls-20" points="583.8 1133.47 583.8 1136.51 582.65 1141.47 577.44 1147.98 575.14 1139.91 575.14 1133.47 583.8 1133.47"/><polygon class="cls-20" points="583.8 1126.44 583.8 1129.47 575.14 1129.47 575.13 1129.47 575.13 1123.04 577.44 1114.97 582.65 1121.48 583.8 1126.44"/><polygon class="cls-20" points="578.96 1198.48 578.96 1234.1 561.19 1234.1 561.19 1200.31 563.01 1198.48 578.96 1198.48"/><polygon class="cls-20" points="578.96 1029.41 578.96 1064.75 563.01 1064.75 561.19 1062.92 561.19 1029.41 578.96 1029.41"/><path class="cls-20" d="M574,1112.47l-2.78,9.74a2,2,0,0,0-.07.55v17.43a2.08,2.08,0,0,0,.07.55l2.78,9.74-1.16.68-3.36.09-3.36-.09-1.17-.68,2.79-9.74a2,2,0,0,0,.07-.55v-17.43a2,2,0,0,0-.07-.55l-2.79-9.74,1.16-.68,3.37-.09,3.36.09Z"/><path class="cls-20" d="M567.47,1155.2v1.7h-3.65a2,2,0,0,0-1.32.5l-1.8,1.59-13.85-4c.11-2.09.34-5.76.61-7.75l.23-1.73,3.73-1.15h2.07l5.85,7.32a1.91,1.91,0,0,0,.55.47l1.65,1,.09.05,2.9,1.7a1.91,1.91,0,0,0,1,.28Z"/><path class="cls-20" d="M567.47,1106.05v1.7l-2,0a2,2,0,0,0-1,.28l-2.92,1.71,0,0-1.67,1a1.91,1.91,0,0,0-.55.47l-5.85,7.32h-2.07l-3.73-1.15-.24-1.73c-.26-2-.49-5.66-.6-7.76l13.85-4,1.8,1.59a2,2,0,0,0,1.32.5Z"/><polygon class="cls-20" points="563.8 1133.47 563.8 1139.91 561.5 1147.98 556.29 1141.47 555.14 1136.51 555.14 1133.47 563.8 1133.47"/><polygon class="cls-20" points="563.8 1123.04 563.8 1129.47 555.14 1129.47 555.14 1126.44 556.29 1121.48 561.5 1114.97 563.8 1123.04"/><path class="cls-20" d="M527.11,1038.44l17.52,30.74L530.89,1077l-2.49-.69-5.23-9.17a1.93,1.93,0,0,0-.49-.57l-11-19.33Z"/><path class="cls-20" d="M544.25,1193.9,538,1204.7a1.83,1.83,0,0,0-.25.71l-11.22,19.4-15.39-8.9,16.92-29.26,2.5-.66Z"/><path class="cls-20" d="M507.94,1157.64l8.82,15.15-11,6.42a2,2,0,0,0-.7.7l-18.93,11-8.94-15.36Z"/><path class="cls-20" d="M516.64,1090.59l-8.78,15.18-11-6.38a2,2,0,0,0-.95-.27L477,1088.22l8.9-15.38Z"/><path class="cls-20" d="M503.35,1124.7v15.66H490.43a2,2,0,0,0-1,.28H467.73v-17.77h33.79Z"/><path class="cls-29" d="M0,240.28V223H3.85v13.59H11.3v3.67Z"/><path class="cls-29" d="M24.64,236.8a5.42,5.42,0,0,1-5.57,3.85,6.42,6.42,0,0,1-.27-12.83c3.75,0,6.06,2.31,6.06,6.21a8.51,8.51,0,0,1-.07,1.14H16.36a2.63,2.63,0,0,0,2.76,2.34,2.33,2.33,0,0,0,2.43-1.58Zm-3.36-4a2.17,2.17,0,0,0-2.43-2,2.3,2.3,0,0,0-2.41,2Z"/><path class="cls-29" d="M39.23,234.22a6.43,6.43,0,1,1-12.86,0,6.25,6.25,0,0,1,6.43-6.4A6.24,6.24,0,0,1,39.23,234.22Zm-3.7,0a2.74,2.74,0,1,0-5.46,0,2.74,2.74,0,1,0,5.46,0Z"/><path class="cls-29" d="M45.32,240.28h-3.7v-12.1H45.2v1.39a3.93,3.93,0,0,1,3.38-1.7c3,0,4.41,2.16,4.41,4.82v7.59h-3.7v-7a1.88,1.88,0,0,0-2-2.09,2,2,0,0,0-2,2.11Z"/><path class="cls-29" d="M59,233.3l2.85-.44c.66-.1.88-.42.88-.83,0-.71-.61-1.32-1.78-1.32a2,2,0,0,0-2.07,1.78l-3.21-.66c.14-1.72,1.75-4,5.3-4,3.93,0,5.36,2.19,5.36,4.67v5.92a10.88,10.88,0,0,0,.15,1.87H63.09a6.14,6.14,0,0,1-.12-1.36,3.82,3.82,0,0,1-3.41,1.71c-2.65,0-4.19-1.76-4.19-3.68C55.37,234.81,57,233.59,59,233.3Zm3.73,2.24V235l-2.29.37c-.78.12-1.36.48-1.36,1.33,0,.64.41,1.25,1.43,1.25S62.68,237.41,62.68,235.54Z"/><path class="cls-29" d="M77.09,231.83a5.41,5.41,0,0,0-1.17-.12c-1.48,0-2.82.88-2.82,3.29v5.28H69.4v-12.1H73v1.63a3.42,3.42,0,0,1,3.14-1.75,3.71,3.71,0,0,1,1,.12Z"/><path class="cls-29" d="M91.1,238.12c0,1.09.07,1.9.09,2.16H87.64a7.3,7.3,0,0,1-.1-1.16,3.93,3.93,0,0,1-3.24,1.43c-3.41,0-6-2.63-6-6.35s2.44-6.31,5.87-6.31c2.07,0,3,.78,3.26,1.24v-6.48H91.1Zm-6.34-.88a2.73,2.73,0,0,0,2.73-3,2.74,2.74,0,1,0-5.45,0A2.73,2.73,0,0,0,84.76,237.24Z"/><path class="cls-29" d="M106.41,234.22a6.43,6.43,0,1,1-6.43-6.4A6.26,6.26,0,0,1,106.41,234.22Zm-3.7,0a2.74,2.74,0,1,0-5.45,0,2.74,2.74,0,1,0,5.45,0Z"/><path class="cls-29" d="M115,240.28V223h6.26c5.19,0,8.67,3.31,8.67,8.64s-3.48,8.62-8.69,8.62Zm6.09-3.62c2.65,0,4.82-1.54,4.82-5s-2.17-5-4.82-5h-2.24v10Z"/><path class="cls-29" d="M134.29,222.31a2.17,2.17,0,1,1-2.14,2.17A2.19,2.19,0,0,1,134.29,222.31Zm-1.82,18v-12.1h3.7v12.1Z"/><path class="cls-29" d="M138.65,231.69a8.8,8.8,0,0,1,8.91-9c5.19,0,7.48,3.34,8,5.82L152,229.62a4.17,4.17,0,0,0-4.41-3.22,5.21,5.21,0,0,0,.05,10.4,4.4,4.4,0,0,0,4.53-3.24l3.68,1.05a8,8,0,0,1-8.21,6A8.69,8.69,0,0,1,138.65,231.69Z"/><path class="cls-29" d="M160.79,233.3l2.84-.44c.66-.1.88-.42.88-.83,0-.71-.61-1.32-1.78-1.32a2,2,0,0,0-2.07,1.78l-3.21-.66c.15-1.72,1.75-4,5.31-4,3.92,0,5.36,2.19,5.36,4.67v5.92a12.77,12.77,0,0,0,.14,1.87h-3.33a5.22,5.22,0,0,1-.13-1.36,3.82,3.82,0,0,1-3.41,1.71c-2.65,0-4.18-1.76-4.18-3.68C157.21,234.81,158.79,233.59,160.79,233.3Zm3.72,2.24V235l-2.29.37c-.78.12-1.36.48-1.36,1.33,0,.64.41,1.25,1.44,1.25S164.51,237.41,164.51,235.54Z"/><path class="cls-29" d="M171.23,244.91V228.18h3.58v1.24a4.31,4.31,0,0,1,3.56-1.53c3.5,0,5.62,2.68,5.62,6.31s-2.38,6.35-5.77,6.35a4.23,4.23,0,0,1-3.29-1.22v5.58Zm6.38-13.68a2.69,2.69,0,0,0-2.73,3,2.75,2.75,0,1,0,5.48,0A2.7,2.7,0,0,0,177.61,231.23Z"/><path class="cls-29" d="M194.07,231.83a5.41,5.41,0,0,0-1.17-.12c-1.48,0-2.82.88-2.82,3.29v5.28h-3.7v-12.1H190v1.63a3.41,3.41,0,0,1,3.14-1.75,3.77,3.77,0,0,1,1,.12Z"/><path class="cls-29" d="M198.14,222.31a2.17,2.17,0,1,1-2.14,2.17A2.18,2.18,0,0,1,198.14,222.31Zm-1.83,18v-12.1H200v12.1Z"/><path class="cls-29" d="M215.23,234.22a6.43,6.43,0,1,1-6.43-6.4A6.26,6.26,0,0,1,215.23,234.22Zm-3.7,0a2.74,2.74,0,1,0-5.45,0,2.74,2.74,0,0,0,2.72,3A2.71,2.71,0,0,0,211.53,234.22Z"/><path class="cls-30" d="M85,249.65a8.74,8.74,0,0,1,9,9,8.87,8.87,0,0,1-2,5.75l2.12,2.31-2.53,2.15-2.12-2.34A9.27,9.27,0,0,1,85,267.65a9,9,0,0,1,0-18Zm0,14.2a5.63,5.63,0,0,0,1.75-.29l-2.53-2.78,2.56-2.14,2.53,2.78a5.71,5.71,0,0,0,.66-2.78,5,5,0,1,0-5,5.21Z"/><path class="cls-30" d="M98.26,257.88l3.89-3.19h-6.6v-3.21H107v3l-3.89,3a4.73,4.73,0,0,1,4.43,4.82c0,2.8-2.32,5.34-6.21,5.34-3.68,0-6-2.37-6.26-5.07l3.7-.68a2.47,2.47,0,0,0,2.53,2.48,2.18,2.18,0,0,0,2.37-2.16,2.11,2.11,0,0,0-2.29-2.15,3.17,3.17,0,0,0-1.42.37Z"/><path class="cls-30" d="M109,263a4.18,4.18,0,0,1,2.68-3.85,3.73,3.73,0,0,1-2.39-3.46c0-2.65,2.39-4.57,5.8-4.57s5.82,1.92,5.82,4.57a3.75,3.75,0,0,1-2.41,3.46,4.22,4.22,0,0,1,2.7,3.85c0,2.78-2.51,4.65-6.11,4.65S109,265.78,109,263Zm8.45-.44a2.39,2.39,0,1,0-2.36,2A2.1,2.1,0,0,0,117.47,262.56Zm-.34-6.57a2,2,0,1,0-2,1.85A1.84,1.84,0,0,0,117.13,256Z"/><path class="cls-30" d="M126.36,267.28V257h-3.78v-2.56c2.37,0,4-1.36,4.31-3h3.29v15.8Z"/><path class="cls-30" d="M136.51,267.28V257h-3.77v-2.56c2.36,0,4-1.36,4.31-3h3.29v15.8Z"/><path class="cls-30" d="M146.67,267.28V257h-3.78v-2.56c2.36,0,4-1.36,4.31-3h3.29v15.8Z"/><path class="cls-29" d="M625.66,436.19l-7.11-11.35v11.35h-3.82V418.92h4.67l6.48,10.5v-10.5h3.85v17.27Z"/><path class="cls-29" d="M644.1,432.71a5.44,5.44,0,0,1-5.58,3.84,6.42,6.42,0,0,1-.27-12.83c3.75,0,6.07,2.31,6.07,6.21a6.59,6.59,0,0,1-.08,1.14h-8.42a2.61,2.61,0,0,0,2.75,2.34,2.33,2.33,0,0,0,2.43-1.58Zm-3.36-4a2.18,2.18,0,0,0-2.44-2.05,2.31,2.31,0,0,0-2.41,2.05Z"/><path class="cls-29" d="M657.27,424.08l2.36,7.19,2-7.19h3.63l-3.75,12.11h-3.68l-2.63-7.82-2.58,7.82h-3.75l-3.8-12.11h3.85l2,7.16,2.39-7.16Z"/><path class="cls-29" d="M671.78,418.92h4.51l3.53,6.41,3.58-6.41h4.29L681.62,429v7.21h-3.85V429Z"/><path class="cls-29" d="M699,430.12a6.43,6.43,0,1,1-6.43-6.4A6.26,6.26,0,0,1,699,430.12Zm-3.7,0a2.74,2.74,0,1,0-5.46,0,2.74,2.74,0,1,0,5.46,0Z"/><path class="cls-29" d="M709.09,427.74a5,5,0,0,0-1.17-.12c-1.49,0-2.83.87-2.83,3.28v5.29h-3.7V424.08H705v1.64a3.41,3.41,0,0,1,3.14-1.76,3.85,3.85,0,0,1,1,.12Z"/><path class="cls-29" d="M718.78,429.17l4.82,7h-4.53l-2.85-4.26L715,433.22v3h-3.7V418.56H715v9.59l3.68-4.07h4.79Z"/><path class="cls-29" d="M730.59,427.59a8.79,8.79,0,0,1,8.91-9c5.19,0,7.48,3.33,8,5.82l-3.63,1.14a4.17,4.17,0,0,0-4.41-3.21,5.21,5.21,0,0,0,0,10.4,4.41,4.41,0,0,0,4.53-3.24l3.68,1a8,8,0,0,1-8.21,6A8.68,8.68,0,0,1,730.59,427.59Z"/><path class="cls-29" d="M752,418.22a2.17,2.17,0,1,1-2.15,2.16A2.17,2.17,0,0,1,752,418.22Zm-1.83,18V424.08h3.7v12.11Z"/><path class="cls-29" d="M761.51,424.08h2.36v3.24h-2.36v4.53c0,1,.54,1.27,1.34,1.27a4.57,4.57,0,0,0,1-.12v3.07a4.52,4.52,0,0,1-1.93.34,3.67,3.67,0,0,1-4-3.9v-5.19h-2.14v-3.24h.61a1.78,1.78,0,0,0,1.87-2v-1.56h3.31Z"/><path class="cls-29" d="M767.7,440.84l2.75-6.28-5.09-10.48h4.14l3,6.48,2.68-6.48h3.92l-7.46,16.76Z"/><path class="cls-30" d="M683.72,445.56a8.74,8.74,0,0,1,9,9,8.86,8.86,0,0,1-1.95,5.74l2.12,2.32-2.53,2.14-2.12-2.34a9.3,9.3,0,0,1-4.48,1.12,9,9,0,0,1,0-18Zm0,14.19a5.35,5.35,0,0,0,1.75-.29l-2.53-2.77,2.55-2.15,2.54,2.78a5.71,5.71,0,0,0,.66-2.78,5,5,0,1,0-5,5.21Z"/><path class="cls-30" d="M705.8,450.79a7.3,7.3,0,0,0-2.48-.51c-2.61,0-4.65,1.29-5.12,4a4.35,4.35,0,0,1,3.75-1.66,5,5,0,0,1,5.29,5.26c0,3.24-2.56,5.65-6.23,5.65s-6.56-2.72-6.56-7.25c0-5.6,3.61-9.28,9.09-9.28a7,7,0,0,1,3.29.66ZM701,460.34a2.31,2.31,0,1,0-2.46-2.29A2.32,2.32,0,0,0,701,460.34Z"/><path class="cls-30" d="M710.06,449.72a6.69,6.69,0,0,1,10.74,0,11.88,11.88,0,0,1,0,11.15,6.68,6.68,0,0,1-10.74,0,12,12,0,0,1,0-11.15Zm3.05,9a2.4,2.4,0,0,0,2.31,1.46,2.38,2.38,0,0,0,2.31-1.46,10,10,0,0,0,0-6.87,2.39,2.39,0,0,0-2.31-1.46,2.42,2.42,0,0,0-2.31,1.46,10.29,10.29,0,0,0,0,6.87Z"/><path class="cls-29" d="M1151.88,239.41v-6.87H1145v6.87h-3.85V222.14H1145v6.77h6.89v-6.77h3.87v17.27Z"/><path class="cls-29" d="M1167,238.19a3.75,3.75,0,0,1-3.24,1.48,4.44,4.44,0,0,1-4.6-4.72V227.3h3.7v6.87a1.88,1.88,0,0,0,2,2.09,1.93,1.93,0,0,0,2-2.07V227.3h3.7v9.94a20.66,20.66,0,0,0,.12,2.17h-3.55A8.72,8.72,0,0,1,1167,238.19Z"/><path class="cls-29" d="M1185.63,237.24a21.39,21.39,0,0,0,.1,2.17h-3.56a9.16,9.16,0,0,1-.1-1.17,3.89,3.89,0,0,1-3.24,1.43c-3.41,0-6-2.63-6-6.35s2.44-6.31,5.87-6.31c2.07,0,3,.78,3.27,1.24v-6.48h3.65Zm-6.33-.88a2.73,2.73,0,0,0,2.72-3,2.74,2.74,0,1,0-5.45,0A2.73,2.73,0,0,0,1179.3,236.36Z"/><path class="cls-29" d="M1191.11,235.41A1.71,1.71,0,0,0,1193,237c1,0,1.41-.51,1.41-1s-.29-.81-1.19-1l-1.39-.32c-2.58-.56-3.61-2-3.61-3.72,0-2.22,2-4,4.65-4,3.51,0,4.73,2.19,4.85,3.6l-3.07.56a1.59,1.59,0,0,0-1.73-1.48,1.17,1.17,0,0,0-1.31,1c0,.51.41.81,1,.9l1.6.32c2.51.51,3.73,2,3.73,3.8,0,2.07-1.58,4.09-4.82,4.09-3.8,0-5-2.46-5.12-3.8Z"/><path class="cls-29" d="M1212.27,233.34a6.43,6.43,0,1,1-6.43-6.4A6.26,6.26,0,0,1,1212.27,233.34Zm-3.7,0a2.74,2.74,0,1,0-5.46,0,2.74,2.74,0,1,0,5.46,0Z"/><path class="cls-29" d="M1218.35,239.41h-3.7V227.3h3.58v1.39a4,4,0,0,1,3.39-1.7c3,0,4.41,2.16,4.41,4.82v7.6h-3.71v-7a1.87,1.87,0,0,0-2-2.09,2,2,0,0,0-2,2.12Z"/><path class="cls-29" d="M1240.59,233h-1.37v6.43h-3.84V222.14h6.84a5.27,5.27,0,0,1,5.6,5.41,5,5,0,0,1-3.41,4.87l3.51,7h-4.24Zm.9-3.32c1.58,0,2.43-.87,2.43-2.09s-.85-2.09-2.43-2.09h-2.27v4.18Z"/><path class="cls-29" d="M1252.25,221.43a2.17,2.17,0,1,1-2.14,2.17A2.18,2.18,0,0,1,1252.25,221.43Zm-1.83,18V227.3h3.71v12.11Z"/><path class="cls-29" d="M1264.67,239.41h-3.73l-5-12.11h4l2.8,7.53,2.59-7.53h3.89Z"/><path class="cls-29" d="M1281.79,235.92a5.44,5.44,0,0,1-5.58,3.85,6.42,6.42,0,0,1-.27-12.83c3.75,0,6.07,2.31,6.07,6.21a6.59,6.59,0,0,1-.08,1.14h-8.42a2.61,2.61,0,0,0,2.75,2.34,2.33,2.33,0,0,0,2.43-1.58Zm-3.36-4a2.17,2.17,0,0,0-2.44-2,2.3,2.3,0,0,0-2.41,2Z"/><path class="cls-29" d="M1292.09,231a5,5,0,0,0-1.17-.13c-1.49,0-2.83.88-2.83,3.29v5.29h-3.7V227.3H1288v1.63a3.42,3.42,0,0,1,3.14-1.75,3.85,3.85,0,0,1,1,.12Z"/><path class="cls-30" d="M1187.13,248.77a8.75,8.75,0,0,1,9,9,8.87,8.87,0,0,1-1.95,5.75l2.12,2.32-2.53,2.14-2.12-2.34a9.3,9.3,0,0,1-4.48,1.12,9,9,0,0,1,0-18Zm0,14.2a5.63,5.63,0,0,0,1.75-.29l-2.53-2.78,2.55-2.14,2.54,2.78a5.71,5.71,0,0,0,.66-2.78,5,5,0,1,0-5,5.21Z"/><path class="cls-30" d="M1200.4,257l3.89-3.19h-6.6V250.6h11.4v3l-3.9,3a4.74,4.74,0,0,1,4.44,4.82c0,2.8-2.32,5.34-6.21,5.34-3.68,0-6-2.37-6.26-5.07l3.7-.68a2.47,2.47,0,0,0,2.53,2.48,2.17,2.17,0,0,0,2.36-2.16,2.1,2.1,0,0,0-2.28-2.15,3.14,3.14,0,0,0-1.42.37Z"/><path class="cls-30" d="M1214.54,266.41V256.13h-3.77v-2.56c2.36,0,4-1.36,4.31-3h3.29v15.81Z"/><path class="cls-30" d="M1220.85,259.22l6.58-8.62H1232v9.3h2.54v3.22H1232v3.29h-3.84v-3.29h-7.31Zm7.31-4.53-4,5.21h4Z"/><path class="cls-30" d="M1237.19,252.94a6.69,6.69,0,0,1,10.74,0,11.88,11.88,0,0,1,0,11.15,6.68,6.68,0,0,1-10.74,0,11.88,11.88,0,0,1,0-11.15Zm3,9a2.42,2.42,0,0,0,2.32,1.46,2.39,2.39,0,0,0,2.31-1.46,10,10,0,0,0,0-6.87,2.39,2.39,0,0,0-2.31-1.46,2.42,2.42,0,0,0-2.32,1.46,10.46,10.46,0,0,0,0,6.87Z"/><path class="cls-29" d="M513.15,1281.12v-17.27h3.9v17.27Z"/><path class="cls-29" d="M524.23,1281.12h-3.7V1269h3.58v1.39a3.94,3.94,0,0,1,3.38-1.71c3,0,4.41,2.17,4.41,4.82v7.6h-3.7v-7a1.87,1.87,0,0,0-2-2.1,2,2,0,0,0-2,2.12Z"/><path class="cls-29" d="M539.45,1269h2.36v3.24h-2.36v4.52c0,1,.53,1.27,1.34,1.27a4.46,4.46,0,0,0,1-.12V1281a4.4,4.4,0,0,1-1.92.34c-2.51,0-4.05-1.49-4.05-3.9v-5.18h-2.14V1269h.61a1.79,1.79,0,0,0,1.88-2v-1.55h3.31Z"/><path class="cls-29" d="M555.3,1277.64a5.44,5.44,0,0,1-5.58,3.85,6.43,6.43,0,0,1-.26-12.84c3.75,0,6.06,2.31,6.06,6.21a8.87,8.87,0,0,1-.07,1.15H547a2.61,2.61,0,0,0,2.75,2.33,2.34,2.34,0,0,0,2.44-1.58Zm-3.36-4a2.17,2.17,0,0,0-2.44-2,2.32,2.32,0,0,0-2.41,2Z"/><path class="cls-29" d="M565.6,1272.67a4.85,4.85,0,0,0-1.17-.12c-1.48,0-2.82.87-2.82,3.29v5.28H557.9V1269h3.58v1.63a3.43,3.43,0,0,1,3.15-1.76,3.35,3.35,0,0,1,1,.13Z"/><path class="cls-29" d="M570.08,1277.13a1.73,1.73,0,0,0,1.9,1.63c.95,0,1.41-.51,1.41-1s-.29-.8-1.19-1l-1.39-.31c-2.58-.56-3.6-2-3.6-3.73,0-2.22,1.94-4,4.65-4,3.5,0,4.72,2.19,4.84,3.61l-3.07.56a1.58,1.58,0,0,0-1.72-1.49c-.71,0-1.32.41-1.32,1.05s.41.8.95.9l1.61.31c2.51.52,3.72,2,3.72,3.8,0,2.07-1.58,4.1-4.82,4.1-3.8,0-5-2.46-5.11-3.8Z"/><path class="cls-29" d="M583.71,1269h2.37v3.24h-2.37v4.52c0,1,.54,1.27,1.34,1.27a4.57,4.57,0,0,0,1-.12V1281a4.52,4.52,0,0,1-1.93.34,3.68,3.68,0,0,1-4-3.9v-5.18h-2.14V1269h.61a1.78,1.78,0,0,0,1.87-2v-1.55h3.31Z"/><path class="cls-29" d="M599.57,1277.64a5.45,5.45,0,0,1-5.58,3.85,6.17,6.17,0,0,1-6.31-6.46,6.11,6.11,0,0,1,6-6.38c3.75,0,6.07,2.31,6.07,6.21a6.85,6.85,0,0,1-.08,1.15h-8.42a2.61,2.61,0,0,0,2.75,2.33,2.35,2.35,0,0,0,2.44-1.58Zm-3.36-4a2.17,2.17,0,0,0-2.44-2,2.31,2.31,0,0,0-2.41,2Z"/><path class="cls-29" d="M602.17,1281.12v-17.63h3.7v17.63Z"/><path class="cls-29" d="M609.14,1281.12v-17.63h3.7v17.63Z"/><path class="cls-29" d="M618.83,1274.13l2.85-.44c.65-.1.87-.41.87-.83,0-.7-.6-1.31-1.77-1.31a2,2,0,0,0-2.07,1.78l-3.22-.66c.15-1.73,1.76-4,5.31-4,3.92,0,5.36,2.19,5.36,4.68v5.91a13,13,0,0,0,.14,1.88H623a5.67,5.67,0,0,1-.12-1.36,3.84,3.84,0,0,1-3.41,1.7c-2.66,0-4.19-1.75-4.19-3.68C615.25,1275.64,616.83,1274.42,618.83,1274.13Zm3.72,2.24v-.53l-2.29.36c-.77.12-1.36.49-1.36,1.34,0,.63.41,1.24,1.44,1.24S622.55,1278.25,622.55,1276.37Z"/><path class="cls-29" d="M637,1272.67a4.9,4.9,0,0,0-1.17-.12c-1.49,0-2.83.87-2.83,3.29v5.28h-3.7V1269h3.58v1.63a3.43,3.43,0,0,1,3.15-1.76,3.35,3.35,0,0,1,1,.13Z"/><path class="cls-30" d="M537.35,1289.6a6.27,6.27,0,0,1,6.43,6.46,6.38,6.38,0,0,1-1.4,4.12l1.52,1.66-1.82,1.54-1.52-1.68a6.57,6.57,0,0,1-3.21.81,6.46,6.46,0,0,1,0-12.91Zm0,10.18a4,4,0,0,0,1.26-.21l-1.82-2,1.83-1.54,1.82,2a4,4,0,0,0,.47-2,3.57,3.57,0,1,0-3.56,3.74Z"/><path class="cls-30" d="M547.71,1302.24v-7.37H545V1293a2.94,2.94,0,0,0,3.09-2.13h2.36v11.33Z"/><path class="cls-30" d="M554.41,1295.5l2.79-2.29h-4.73v-2.3h8.17V1293l-2.79,2.16a3.4,3.4,0,0,1,3.18,3.46c0,2-1.66,3.83-4.46,3.83a4.2,4.2,0,0,1-4.49-3.63l2.66-.49a1.77,1.77,0,0,0,1.82,1.78,1.57,1.57,0,0,0,1.69-1.56,1.5,1.5,0,0,0-1.64-1.53,2.33,2.33,0,0,0-1,.26Z"/><path class="cls-30" d="M562,1297.09l4.72-6.18H570v6.67h1.82v2.31H570v2.35h-2.76v-2.35H562Zm5.24-3.25-2.84,3.74h2.84Z"/><path class="cls-30" d="M575,1302.24v-7.37h-2.71V1293a2.94,2.94,0,0,0,3.09-2.13h2.36v11.33Z"/><path class="cls-30" d="M588.24,1293.11a13.34,13.34,0,0,0-4.44,9.13h-2.87a14.12,14.12,0,0,1,4.06-9h-5.56v-2.3h8.81Z"/><path class="cls-30" d="M591.71,1302.24v-7.37H589V1293a2.94,2.94,0,0,0,3.09-2.13h2.36v11.33Z"/><path class="cls-30" d="M596.57,1299.17a3,3,0,0,1,1.92-2.76,2.68,2.68,0,0,1-1.71-2.48c0-1.91,1.71-3.29,4.16-3.29s4.18,1.38,4.18,3.29a2.7,2.7,0,0,1-1.73,2.48,3,3,0,0,1,1.94,2.76c0,2-1.8,3.34-4.39,3.34S596.57,1301.16,596.57,1299.17Zm6.07-.31a1.72,1.72,0,1,0-1.7,1.41A1.51,1.51,0,0,0,602.64,1298.86Zm-.25-4.72a1.46,1.46,0,1,0-1.45,1.33A1.32,1.32,0,0,0,602.39,1294.14Z"/><path class="cls-30" d="M607.35,1299.69a4.75,4.75,0,0,0,2,.46c1.73,0,3.26-.79,3.44-2.8a3,3,0,0,1-2.47,1.1,3.74,3.74,0,0,1-3.91-3.8c0-2.31,1.78-4,4.44-4s4.59,1.84,4.59,5.46c0,4-2.15,6.41-6,6.41a5.66,5.66,0,0,1-2.64-.6Zm3.38-6.74a1.61,1.61,0,1,0,1.69,1.61A1.61,1.61,0,0,0,610.73,1293Z"/><path class="cls-29" d="M16.33,834.61a8.8,8.8,0,0,1,8.92-9c5.18,0,7.47,3.34,8,5.82l-3.63,1.15a4.17,4.17,0,0,0-4.4-3.22,5.21,5.21,0,0,0,0,10.4,4.41,4.41,0,0,0,4.53-3.24l3.68,1a8,8,0,0,1-8.21,6A8.69,8.69,0,0,1,16.33,834.61Z"/><path class="cls-29" d="M39.34,843.2h-3.7V825.57h3.7v6.31a4.53,4.53,0,0,1,3.1-1.1c3.16,0,4.57,2.17,4.57,4.83v7.59h-3.7v-7a1.88,1.88,0,0,0-2-2.1,2,2,0,0,0-2,2Z"/><path class="cls-29" d="M57.83,834.75a5.53,5.53,0,0,0-1.17-.12c-1.49,0-2.83.88-2.83,3.29v5.28h-3.7V831.1h3.58v1.63A3.42,3.42,0,0,1,56.85,831a3.85,3.85,0,0,1,1,.12Z"/><path class="cls-29" d="M61.89,825.23a2.17,2.17,0,1,1-2.14,2.17A2.18,2.18,0,0,1,61.89,825.23Zm-1.83,18V831.1h3.71v12.1Z"/><path class="cls-29" d="M69.15,839.21a1.72,1.72,0,0,0,1.9,1.63c1,0,1.41-.51,1.41-1.05s-.29-.8-1.19-1l-1.39-.32c-2.58-.56-3.61-2-3.61-3.73,0-2.21,2-4,4.65-4,3.51,0,4.73,2.19,4.85,3.6l-3.07.56A1.6,1.6,0,0,0,71,833.41a1.18,1.18,0,0,0-1.31,1.05c0,.51.41.8,1,.9l1.6.32c2.51.51,3.73,2,3.73,3.8,0,2.07-1.58,4.09-4.82,4.09-3.8,0-5-2.46-5.12-3.8Z"/><path class="cls-29" d="M82.78,831.1h2.36v3.24H82.78v4.53c0,1,.54,1.27,1.34,1.27a4.48,4.48,0,0,0,1-.13v3.07a4.35,4.35,0,0,1-1.93.34c-2.51,0-4-1.48-4-3.89v-5.19H77V831.1h.61a1.78,1.78,0,0,0,1.87-2v-1.56h3.31Z"/><path class="cls-29" d="M99.61,837.14a6.43,6.43,0,1,1-6.43-6.4A6.26,6.26,0,0,1,99.61,837.14Zm-3.7,0a2.74,2.74,0,1,0-5.46,0,2.74,2.74,0,1,0,5.46,0Z"/><path class="cls-29" d="M102,847.83V831.1h3.58v1.24a4.31,4.31,0,0,1,3.56-1.53c3.51,0,5.62,2.68,5.62,6.31s-2.38,6.35-5.77,6.35a4.2,4.2,0,0,1-3.28-1.22v5.58Zm6.38-13.69a2.7,2.7,0,0,0-2.72,3,2.75,2.75,0,1,0,2.72-3Z"/><path class="cls-29" d="M120.84,843.2h-3.7V825.57h3.7v6.31a4.53,4.53,0,0,1,3.09-1.1c3.17,0,4.58,2.17,4.58,4.83v7.59h-3.7v-7a1.88,1.88,0,0,0-2-2.1,2,2,0,0,0-2,2Z"/><path class="cls-29" d="M142.64,839.72a5.44,5.44,0,0,1-5.58,3.85,6.42,6.42,0,0,1-.27-12.83c3.75,0,6.06,2.31,6.06,6.21a7,7,0,0,1-.07,1.14h-8.42a2.62,2.62,0,0,0,2.75,2.34,2.33,2.33,0,0,0,2.43-1.59Zm-3.37-4a2.16,2.16,0,0,0-2.43-2,2.3,2.3,0,0,0-2.41,2Z"/><path class="cls-29" d="M152.93,834.75a5.38,5.38,0,0,0-1.16-.12c-1.49,0-2.83.88-2.83,3.29v5.28h-3.7V831.1h3.58v1.63A3.42,3.42,0,0,1,152,831a3.71,3.71,0,0,1,1,.12Z"/><path class="cls-29" d="M172.22,843.2l-7.11-11.34V843.2h-3.82V825.94H166l6.48,10.49V825.94h3.85V843.2Z"/><path class="cls-29" d="M191.63,837.14a6.43,6.43,0,1,1-6.43-6.4A6.26,6.26,0,0,1,191.63,837.14Zm-3.7,0a2.74,2.74,0,1,0-5.46,0,2.74,2.74,0,1,0,5.46,0Z"/><path class="cls-29" d="M194,843.2V825.57h3.7V843.2Z"/><path class="cls-29" d="M203.71,836.21l2.84-.43c.66-.1.88-.42.88-.83,0-.71-.61-1.32-1.78-1.32a2,2,0,0,0-2.07,1.78l-3.21-.66c.15-1.73,1.75-4,5.31-4,3.92,0,5.36,2.19,5.36,4.67v5.92a12.77,12.77,0,0,0,.14,1.87h-3.33a5.22,5.22,0,0,1-.13-1.36,3.82,3.82,0,0,1-3.41,1.7c-2.65,0-4.18-1.75-4.18-3.67C200.13,837.72,201.71,836.51,203.71,836.21Zm3.72,2.24v-.53l-2.29.36c-.78.13-1.36.49-1.36,1.34,0,.64.41,1.25,1.44,1.25S207.43,840.33,207.43,838.45Z"/><path class="cls-29" d="M217.85,843.2h-3.7V831.1h3.58v1.39a4,4,0,0,1,3.39-1.71c3,0,4.4,2.17,4.4,4.83v7.59h-3.7v-7a1.88,1.88,0,0,0-2-2.1,2,2,0,0,0-2,2.12Z"/><path class="cls-30" d="M92.32,852.57a8.74,8.74,0,0,1,9,9,8.89,8.89,0,0,1-2,5.75l2.12,2.31-2.53,2.15-2.12-2.34a9.27,9.27,0,0,1-4.48,1.12,9,9,0,0,1,0-18Zm0,14.2a5.63,5.63,0,0,0,1.75-.29l-2.53-2.78,2.56-2.14,2.53,2.77a5.64,5.64,0,0,0,.66-2.77,5,5,0,1,0-5,5.21Z"/><path class="cls-30" d="M103.15,860.71a5.73,5.73,0,0,1-.14-1.32c0-2.82,2.11-5.36,5.91-5.36,3.63,0,5.87,2.37,5.87,5.19a5.61,5.61,0,0,1-3.11,4.92l-3,1.78a2.69,2.69,0,0,0-1.07,1.07h7.31v3.21h-12c0-2.89.83-5.28,3.73-7l2.58-1.51c1.24-.73,1.73-1.39,1.73-2.44a1.89,1.89,0,0,0-2.12-1.87,2.12,2.12,0,0,0-2.22,2.34,3.32,3.32,0,0,0,.15,1Z"/><path class="cls-30" d="M119.76,865a2.47,2.47,0,0,0,2.56,2.36,2.23,2.23,0,0,0,2.36-2.29,2.28,2.28,0,0,0-2.46-2.34,2.83,2.83,0,0,0-2.22,1c-.07,0-3.36-1.08-3.43-1.12l1.78-8.21h9.18v3.21H121l-.63,3a4.55,4.55,0,0,1,2.68-.85c3.24,0,5.45,1.88,5.45,5.29,0,2.94-2.24,5.57-6.18,5.57-3.51,0-5.92-2.41-6.12-4.89Z"/><path class="cls-30" d="M133.4,870.2V859.93h-3.78v-2.56c2.36,0,4-1.36,4.31-3h3.29v15.8Z"/><path class="cls-30" d="M141.14,866.65a6.75,6.75,0,0,0,2.78.63c2.41,0,4.55-1.09,4.79-3.89a4.14,4.14,0,0,1-3.43,1.53,5.22,5.22,0,0,1-5.45-5.31c0-3.21,2.48-5.58,6.18-5.58s6.41,2.56,6.41,7.6c0,5.6-3,8.94-8.43,8.94a7.88,7.88,0,0,1-3.68-.83Zm4.7-9.4a2.24,2.24,0,1,0,2.36,2.24A2.23,2.23,0,0,0,145.84,857.25Z"/><path class="cls-30" d="M157.58,870.2V859.93H153.8v-2.56c2.37,0,4-1.36,4.31-3h3.29v15.8Z"/><path class="cls-29" d="M1169.65,492.23V470h-8.17v-5.53c5.11-.05,8.75-3,9.33-6.42h7.11v34.18Z"/><path class="cls-29" d="M1208.89,465.42a16,16,0,0,0-5.38-1.11c-5.63,0-10.06,2.8-11.06,8.69,1.21-1.94,4.11-3.58,8.11-3.58,7,0,11.43,4.74,11.43,11.38,0,7-5.53,12.22-13.48,12.22-8.11,0-14.17-5.9-14.17-15.7,0-12.11,7.8-20.06,19.65-20.06a15.21,15.21,0,0,1,7.11,1.42Zm-10.49,20.65c2.95,0,5.38-1.95,5.38-4.95s-2.43-5-5.38-5a5,5,0,0,0-5.32,5A5,5,0,0,0,1198.4,486.07Z"/><path class="cls-29" d="M1215.31,471.69a11.63,11.63,0,0,1-.32-2.85c0-6.11,4.59-11.58,12.8-11.58,7.85,0,12.7,5.1,12.7,11.21,0,4.43-2.37,8.06-6.74,10.65l-6.48,3.84a5.75,5.75,0,0,0-2.32,2.32h15.8v7h-26c0-6.27,1.79-11.43,8.06-15.06l5.59-3.27c2.68-1.58,3.74-3,3.74-5.27s-1.53-4.05-4.59-4.05-4.79,2.21-4.79,5.05a7.3,7.3,0,0,0,.32,2.11Z"/><path class="cls-29" d="M1243.23,476.69l14.22-18.64h9.9v20.12h5.48v6.95h-5.48v7.11H1259v-7.11h-15.8Zm15.8-9.8-8.59,11.28H1259Z"/><path class="cls-30" d="M1179.57,526.82V509.55h3.85v13.59h7.45v3.68Z"/><path class="cls-30" d="M1194.93,508.85a2.17,2.17,0,1,1-2.14,2.17A2.18,2.18,0,0,1,1194.93,508.85Zm-1.82,18v-12.1h3.7v12.1Z"/><path class="cls-30" d="M1204.48,514.72h2.36V518h-2.36v4.53c0,1,.53,1.26,1.34,1.26a4.46,4.46,0,0,0,1-.12v3.07a4.4,4.4,0,0,1-1.92.34,3.67,3.67,0,0,1-4-3.9V518h-2.15v-3.24h.61a1.79,1.79,0,0,0,1.88-2v-1.55h3.31Z"/><path class="cls-30" d="M1220.33,523.34a5.44,5.44,0,0,1-5.58,3.85,6.43,6.43,0,0,1-.26-12.84c3.75,0,6.06,2.31,6.06,6.21a8.87,8.87,0,0,1-.07,1.15h-8.43a2.62,2.62,0,0,0,2.75,2.33,2.34,2.34,0,0,0,2.44-1.58Zm-3.36-4a2.17,2.17,0,0,0-2.44-2.05,2.32,2.32,0,0,0-2.41,2.05Z"/><path class="cls-30" d="M1230.63,518.37a4.85,4.85,0,0,0-1.17-.12c-1.48,0-2.82.87-2.82,3.29v5.28h-3.7v-12.1h3.58v1.63a3.4,3.4,0,0,1,3.14-1.76,3.35,3.35,0,0,1,1,.13Z"/><path class="cls-30" d="M1235.82,519.83l2.85-.44c.65-.1.87-.41.87-.83,0-.7-.61-1.31-1.78-1.31a2,2,0,0,0-2.07,1.78l-3.21-.66c.15-1.73,1.75-4,5.31-4,3.92,0,5.36,2.19,5.36,4.68V525a12.92,12.92,0,0,0,.14,1.87H1240a5.38,5.38,0,0,1-.13-1.36,3.81,3.81,0,0,1-3.4,1.7c-2.66,0-4.19-1.75-4.19-3.68C1232.24,521.34,1233.82,520.12,1235.82,519.83Zm3.72,2.24v-.53l-2.29.36c-.78.12-1.36.49-1.36,1.34,0,.63.41,1.24,1.44,1.24S1239.54,524,1239.54,522.07Z"/><path class="cls-30" d="M1246.26,526.82V509.19h3.7v17.63Z"/><line class="cls-31" x1="1092.7" y1="144.21" x2="784.59" y2="302.72"/><polygon class="cls-29" points="1078.25 137.85 1077.43 140.74 1091.67 144.74 1086.65 158.65 1089.47 159.67 1095.59 142.72 1078.25 137.85"/><line class="cls-31" x1="212.11" y1="900.78" x2="442.59" y2="1088.72"/><polygon class="cls-29" points="212.06 916.57 215.04 916.16 213 901.51 227.77 900.55 227.57 897.56 209.59 898.73 212.06 916.57"/><line class="cls-31" x1="558.82" y1="301.02" x2="251.59" y2="112.72"/><polygon class="cls-29" points="556.75 285.37 553.86 286.17 557.84 300.42 543.34 303.35 543.93 306.29 561.59 302.72 556.75 285.37"/><line class="cls-31" x1="1092.7" y1="481.24" x2="784.59" y2="322.72"/><polygon class="cls-29" points="1089.47 465.78 1086.65 466.8 1091.68 480.71 1077.43 484.71 1078.25 487.6 1095.59 482.72 1089.47 465.78"/><path class="cls-29" d="M372.22,171.63l-1.17-.7-3.32,5.5-3.3-2,8.92-14.79,5.86,3.53a5.27,5.27,0,0,1,2,7.53,5,5,0,0,1-5.43,2.41l-.61,7.79-3.63-2.19Zm2.48-2.37c1.35.82,2.54.51,3.17-.54s.35-2.23-1-3.05l-1.94-1.17-2.16,3.59Z"/><path class="cls-29" d="M388.32,184.78a5.45,5.45,0,0,1-6.77.42,6.42,6.42,0,0,1,6.4-11.13c3.21,1.94,4,5.11,2,8.45a7.73,7.73,0,0,1-.66.94l-7.21-4.35a2.62,2.62,0,0,0,1.15,3.42,2.33,2.33,0,0,0,2.9-.1Zm-.81-5.17a2.16,2.16,0,0,0-1-3,2.3,2.3,0,0,0-3.12.5Z"/><path class="cls-29" d="M392.64,186.79a1.73,1.73,0,0,0,.79,2.38c.81.49,1.47.29,1.75-.16s.16-.84-.51-1.48l-1-1c-1.92-1.82-2-3.6-1.17-5.05,1.15-1.9,3.75-2.44,6.06-1,3,1.81,2.92,4.31,2.29,5.59l-2.92-1.11a1.57,1.57,0,0,0-.71-2.16,1.18,1.18,0,0,0-1.67.21,1,1,0,0,0,.35,1.27l1.22,1.1c1.88,1.73,2.14,3.65,1.22,5.17-1.07,1.78-3.46,2.69-6.24,1-3.25-2-3-4.7-2.42-5.9Z"/><path class="cls-29" d="M398.46,195l6.25-10.37,3.17,1.92-6.25,10.36Zm10.85-14.45a2.17,2.17,0,1,1-3,.75A2.19,2.19,0,0,1,409.31,180.52Z"/><path class="cls-29" d="M415.72,202.85a21.44,21.44,0,0,0-1,1.9l-3.05-1.83a8.69,8.69,0,0,1,.52-1,3.91,3.91,0,0,1-3.51-.45,6,6,0,0,1-1.85-8.53c1.86-3.09,5.34-4.15,8.28-2.37,1.77,1.07,2.14,2.2,2.15,2.75l3.35-5.55,3.13,1.88Zm-5-4a2.74,2.74,0,0,0,3.9-1.18,2.74,2.74,0,1,0-4.67-2.82A2.74,2.74,0,0,0,410.75,198.83Z"/><path class="cls-29" d="M428.68,209.13a5.43,5.43,0,0,1-6.76.41,6.42,6.42,0,0,1,6.4-11.13c3.21,1.94,4,5.12,2,8.45a7.38,7.38,0,0,1-.65.95l-7.21-4.36a2.62,2.62,0,0,0,1.14,3.43,2.35,2.35,0,0,0,2.91-.1Zm-.8-5.18a2.17,2.17,0,0,0-1-3,2.31,2.31,0,0,0-3.12.51Z"/><path class="cls-29" d="M432.28,215.37l-3.17-1.92,6.25-10.36,3.07,1.85-.72,1.19a4,4,0,0,1,3.78.29c2.61,1.57,2.66,4.13,1.29,6.4l-3.93,6.51-3.17-1.91,3.6-6a1.87,1.87,0,0,0-.61-2.81,2,2,0,0,0-2.8.78Z"/><path class="cls-29" d="M447,217.21a2.78,2.78,0,0,0,.87,4A2.51,2.51,0,0,0,451,221l2.28,2.54a5.72,5.72,0,0,1-7.12.62,6.42,6.42,0,1,1,6.52-11.05,5.67,5.67,0,0,1,2.81,6.62l-3.35-.86a2.37,2.37,0,0,0-1.15-2.8A2.74,2.74,0,0,0,447,217.21Z"/><path class="cls-29" d="M464.34,230.63a5.44,5.44,0,0,1-6.76.42,6.17,6.17,0,0,1-2.07-8.79,6.1,6.1,0,0,1,8.46-2.34c3.22,1.94,4,5.11,2,8.45a8.14,8.14,0,0,1-.65.94L458.09,225a2.62,2.62,0,0,0,1.15,3.42,2.33,2.33,0,0,0,2.9-.1Zm-.8-5.18a2.17,2.17,0,0,0-1-3,2.3,2.3,0,0,0-3.12.5Z"/><path class="cls-30" d="M379,211.7,375.76,217l-3.29-2,8.91-14.79L387,203.6c3,1.81,3.87,5,2.21,7.79s-4.92,3.49-7.92,1.68Zm3.65-1.67a2.22,2.22,0,1,0,2.27-3.78L383,205.1l-2.28,3.77Z"/><path class="cls-30" d="M389.93,219.45a2.48,2.48,0,0,0,1,3.34,2.23,2.23,0,0,0,3.21-.74,2.27,2.27,0,0,0-.9-3.27,2.8,2.8,0,0,0-2.43-.27c0-.06-2.32-2.65-2.36-2.73l5.76-6.11,7.86,4.74-1.66,2.75-5.58-3.37L392.72,216a4.48,4.48,0,0,1,2.73.65c2.78,1.67,3.71,4.42,1.95,7.34-1.53,2.53-4.8,3.62-8.18,1.58-3-1.81-3.82-5.12-2.71-7.34Z"/><path class="cls-30" d="M401.55,226.45a2.46,2.46,0,0,0,1,3.34,2.22,2.22,0,0,0,3.2-.73,2.28,2.28,0,0,0-.9-3.28,2.84,2.84,0,0,0-2.42-.27s-2.33-2.65-2.36-2.73l5.76-6.11,7.86,4.74L412,224.16l-5.59-3.37L404.33,223a4.52,4.52,0,0,1,2.74.66c2.77,1.67,3.7,4.42,1.94,7.34-1.52,2.52-4.8,3.62-8.18,1.58-3-1.81-3.82-5.12-2.7-7.35Z"/><path class="cls-30" d="M410.52,238l5.31-8.8-3.23-2,1.32-2.19c2,1.2,4.16.92,5.22-.32l2.82,1.7L413.79,240Z"/><path class="cls-29" d="M855.17,256.68,850,246.47l1.16,12.25-2.78,1.41-9.13-8,5.11,10.08-3.26,1.65-7.81-15.4,4.48-2.27,9.51,8.26L846,242l4.72-2.39,7.8,15.41Z"/><path class="cls-29" d="M861,245.88l2.34-1.68c.54-.38.6-.76.41-1.13-.32-.63-1.14-.9-2.18-.37a1.94,1.94,0,0,0-1,2.52l-3.17.87c-.65-1.61-.25-4.38,2.92-6,3.5-1.77,5.77-.47,6.89,1.75l2.68,5.28a11.24,11.24,0,0,0,1,1.6l-3,1.51a5.33,5.33,0,0,1-.72-1.16,3.82,3.82,0,0,1-2.28,3.06c-2.36,1.2-4.52.33-5.39-1.38C858.51,248.85,859.37,247,861,245.88Zm4.33.31-.24-.47-1.87,1.36a1.35,1.35,0,0,0-.62,1.81,1.26,1.26,0,0,0,1.85.46A2.1,2.1,0,0,0,865.35,246.19Z"/><path class="cls-29" d="M867,230.54a2.16,2.16,0,1,1-.93,2.9A2.17,2.17,0,0,1,867,230.54Zm6.5,16.85L868,236.6l3.3-1.68,5.48,10.8Z"/><path class="cls-29" d="M883,242.58l-3.3,1.67-5.48-10.79,3.2-1.62.62,1.24a4,4,0,0,1,2.25-3.05c2.72-1.38,4.91-.06,6.11,2.31l3.44,6.77-3.3,1.68-3.15-6.22a1.88,1.88,0,0,0-2.71-1,2,2,0,0,0-.82,2.79Z"/><path class="cls-29" d="M896.12,216.57c3-1.54,5.69-.68,6.89,1.69a3.88,3.88,0,0,1-.58,4.45,4,4,0,0,1,4.56,2.22c1.28,2.52.3,5.33-2.61,6.81l-6.21,3.15-7.81-15.4ZM898.7,223a1.91,1.91,0,0,0,1.13-2.67c-.51-1-1.51-1.31-2.86-.63l-1.82.92,1.68,3.33Zm3.54,6.29c1.33-.67,1.78-1.78,1.22-2.88s-1.7-1.41-3-.73l-2.15,1.09,1.82,3.61Z"/><path class="cls-29" d="M919.41,217.32a6.43,6.43,0,1,1-8.63-2.8A6.27,6.27,0,0,1,919.41,217.32ZM916.1,219a2.74,2.74,0,1,0-4.86,2.46,2.75,2.75,0,0,0,3.8,1.46A2.71,2.71,0,0,0,916.1,219Z"/><path class="cls-29" d="M933.92,214.34c.49,1,.92,1.66,1.06,1.88l-3.17,1.61a9.24,9.24,0,0,1-.61-1,3.93,3.93,0,0,1-2.24,2.75c-3,1.54-6.53.36-8.22-3s-.68-6.73,2.38-8.28c1.85-.94,3-.65,3.48-.37l-2.93-5.78,3.26-1.65Zm-6,2.08a2.73,2.73,0,0,0,1.07-3.93,2.74,2.74,0,1,0-1.07,3.93Z"/><path class="cls-29" d="M940.74,218.52l-.39-6.85-9.27-7,3.69-1.88,5.55,4.45-.53-7,3.49-1.77.93,18.31Z"/><path class="cls-29" d="M963.71,194.86a6.43,6.43,0,1,1-8.63-2.8A6.26,6.26,0,0,1,963.71,194.86Zm-3.3,1.68a2.74,2.74,0,1,0-4.86,2.46,2.74,2.74,0,1,0,4.86-2.46Z"/><path class="cls-29" d="M968.32,189.25l4.06,8-3.3,1.67-4.06-8-1.72.86L961.89,189l1.72-.87-.47-.93a4.31,4.31,0,0,1,2-6.26,4.62,4.62,0,0,1,1.69-.56l1.36,2.7a3.94,3.94,0,0,0-1,.38,1.48,1.48,0,0,0-.68,2.18l.42.82,2.35-1.19,1.41,2.78Z"/><path class="cls-29" d="M991.38,168.28l3.52-1.78L998.51,184l-3.54,1.8-8.45-8.55,1.87,11.88-3.6,1.83-12-13.28,3.65-1.85,7.54,8.58L982.17,173l3.52-1.79,8.2,8.27Z"/><path class="cls-29" d="M1003.11,173.86l2.34-1.68c.54-.39.59-.77.41-1.14-.32-.63-1.14-.89-2.18-.36a2,2,0,0,0-1,2.52l-3.16.86c-.65-1.61-.25-4.37,2.92-6,3.5-1.77,5.77-.47,6.89,1.75l2.68,5.28a13.75,13.75,0,0,0,1,1.6l-3,1.51a5.94,5.94,0,0,1-.73-1.16,3.8,3.8,0,0,1-2.27,3.06c-2.36,1.2-4.52.33-5.4-1.38C1000.6,176.82,1001.46,175,1003.11,173.86Zm4.33.31-.24-.47-1.88,1.36a1.34,1.34,0,0,0-.61,1.81,1.25,1.25,0,0,0,1.85.45A2.09,2.09,0,0,0,1007.44,174.17Z"/><path class="cls-29" d="M1014,162.63l2.1-1.07,1.47,2.89-2.11,1.06,2.05,4c.45.9,1,.89,1.76.53a4.78,4.78,0,0,0,.82-.55l1.39,2.74a4.48,4.48,0,0,1-1.57,1.17,3.67,3.67,0,0,1-5.36-1.65l-2.35-4.62-1.91,1-1.46-2.89.54-.28a1.78,1.78,0,0,0,.78-2.61l-.71-1.39,3-1.49Z"/><path class="cls-29" d="M1032,163.15a5.42,5.42,0,0,1-3.23,5.95,6.42,6.42,0,0,1-6-11.33c3.34-1.69,6.45-.67,8.21,2.8a8.11,8.11,0,0,1,.46,1.06l-7.52,3.81a2.62,2.62,0,0,0,3.51.84,2.35,2.35,0,0,0,1.46-2.52Zm-4.81-2.07a2.18,2.18,0,0,0-3.1-.72,2.3,2.3,0,0,0-1.22,2.91Z"/><path class="cls-29" d="M1038.94,154.06a4.58,4.58,0,0,0-1.1.42c-1.33.67-2.13,2.06-1,4.21l2.39,4.71-3.3,1.68-5.47-10.8,3.19-1.62.74,1.46a3.42,3.42,0,0,1,2-3,4.14,4.14,0,0,1,.92-.33Z"/><path class="cls-30" d="M935.38,245.25l2.81,5.54-3.44,1.74-7.8-15.4,5.8-2.94c3.13-1.59,6.32-.62,7.78,2.25s.35,6-2.78,7.61Zm.52-4a2.22,2.22,0,1,0-2-3.93l-2,1,2,3.93Z"/><path class="cls-30" d="M943,237.7a5.62,5.62,0,0,1-.72-1.1c-1.28-2.52-.54-5.74,2.86-7.46,3.23-1.64,6.3-.54,7.58,2a5.63,5.63,0,0,1-.56,5.79l-1.87,2.94a2.71,2.71,0,0,0-.47,1.44l6.51-3.3,1.46,2.87-10.71,5.43c-1.31-2.59-1.65-5.09.17-7.9l1.62-2.52c.78-1.21.92-2,.45-3a1.89,1.89,0,0,0-2.74-.71,2.1,2.1,0,0,0-.92,3.08,3.21,3.21,0,0,0,.57.81Z"/><path class="cls-30" d="M954.32,227.51a6.68,6.68,0,0,1,9.58-4.85,11.86,11.86,0,0,1,5,10,6.69,6.69,0,0,1-9.58,4.85,11.86,11.86,0,0,1-5-10Zm6.79,6.66a2.56,2.56,0,0,0,4.12-2.09,7.79,7.79,0,0,0-1-3.34,7.91,7.91,0,0,0-2.09-2.78,2.39,2.39,0,0,0-2.73-.26,2.43,2.43,0,0,0-1.4,2.35,8.44,8.44,0,0,0,1,3.33A8.32,8.32,0,0,0,961.11,234.17Z"/><path class="cls-30" d="M977.31,217.06a7.24,7.24,0,0,0-2.45.67c-2.33,1.18-3.57,3.26-2.75,5.9a4.35,4.35,0,0,1,2.6-3.18,5,5,0,0,1,7.09,2.31c1.46,2.89.27,6.19-3,7.85s-7.07.53-9.12-3.51c-2.53-5-1-9.9,3.91-12.38a7,7,0,0,1,3.23-.9Zm0,10.71a2.31,2.31,0,1,0-3.23-.93A2.33,2.33,0,0,0,977.3,227.77Z"/><path class="cls-29" d="M904.21,375.44l7.95-15.32,3.46,1.79-8,15.33Z"/><path class="cls-29" d="M914.05,380.55l-3.29-1.71,5.58-10.74,3.17,1.65-.64,1.23a4,4,0,0,1,3.79,0c2.71,1.41,2.92,4,1.7,6.31l-3.5,6.75-3.29-1.71,3.21-6.18a1.88,1.88,0,0,0-.79-2.77,2,2,0,0,0-2.75,1Z"/><path class="cls-29" d="M928.89,381.44a2.77,2.77,0,0,0,1.13,4,2.5,2.5,0,0,0,3.05-.44l2.44,2.39a5.73,5.73,0,0,1-7.06,1.08,6.31,6.31,0,0,1-2.82-8.68,6.24,6.24,0,0,1,8.62-2.77,5.67,5.67,0,0,1,3.23,6.42l-3.4-.64a2.38,2.38,0,0,0-1.34-2.72A2.73,2.73,0,0,0,928.89,381.44Z"/><path class="cls-29" d="M947,393.73a5.44,5.44,0,0,1-6.73.84A6.42,6.42,0,0,1,946,383.06c3.32,1.72,4.31,4.84,2.52,8.3a8.19,8.19,0,0,1-.59,1l-7.48-3.88a2.62,2.62,0,0,0,1.36,3.35,2.34,2.34,0,0,0,2.89-.29Zm-1.14-5.12a2.17,2.17,0,0,0-1.22-2.94,2.31,2.31,0,0,0-3.08.71Z"/><path class="cls-29" d="M945.59,402.12l7.71-14.85,3.18,1.65-.58,1.1a4.31,4.31,0,0,1,3.86.28c3.12,1.61,3.76,5,2.09,8.19s-5,4.54-8.05,3a4.25,4.25,0,0,1-2.35-2.59l-2.57,4.95Zm12-9.21a3,3,0,1,0,1.06,3.93A2.7,2.7,0,0,0,957.56,392.91Z"/><path class="cls-29" d="M970.65,396.28l2.1,1.09-1.49,2.87-2.1-1.09-2.09,4c-.46.89-.1,1.37.61,1.74a4.3,4.3,0,0,0,.92.34L967.19,408a4.43,4.43,0,0,1-1.87-.59,3.68,3.68,0,0,1-1.79-5.32l2.39-4.6-1.9-1,1.49-2.87.54.28a1.77,1.77,0,0,0,2.57-.89l.72-1.38,2.94,1.52Z"/><path class="cls-29" d="M969.51,409.32l5.57-10.74,3.29,1.7L972.79,411Zm9.9-15.11a2.17,2.17,0,1,1-2.9.93A2.17,2.17,0,0,1,979.41,394.21Z"/><path class="cls-29" d="M989.1,412.65a6.43,6.43,0,1,1-2.76-8.65A6.26,6.26,0,0,1,989.1,412.65Zm-3.29-1.7a2.74,2.74,0,1,0-4.84-2.52,2.75,2.75,0,0,0,1,3.94A2.72,2.72,0,0,0,985.81,411Z"/><path class="cls-29" d="M991.71,420.84l-3.29-1.71L994,408.39l3.18,1.65-.64,1.23a4,4,0,0,1,3.79,0c2.7,1.41,2.92,4,1.7,6.31l-3.5,6.75-3.29-1.71,3.21-6.18a1.88,1.88,0,0,0-.79-2.77,2,2,0,0,0-2.75,1Z"/><path class="cls-30" d="M916.1,408.69l-2.86,5.51-3.41-1.77,7.95-15.33,5.77,3c3.12,1.62,4.19,4.78,2.71,7.64s-4.69,3.79-7.8,2.18Zm3.54-1.9a2.22,2.22,0,1,0,2-3.91l-2-1-2,3.91Z"/><path class="cls-30" d="M927.54,415.72a2.47,2.47,0,0,0,1.19,3.27,2.23,2.23,0,0,0,3.15-.94,2.27,2.27,0,0,0-1.11-3.21,2.85,2.85,0,0,0-2.44-.11c-.05-.06-2.49-2.5-2.53-2.58l5.36-6.46,8.15,4.22-1.48,2.86-5.8-3-1.93,2.35a4.5,4.5,0,0,1,2.77.47c2.88,1.5,4,4.18,2.41,7.21-1.35,2.61-4.55,3.92-8.06,2.1-3.11-1.61-4.14-4.87-3.17-7.16Z"/><path class="cls-30" d="M950.34,419.1A18.62,18.62,0,0,0,939,427.56l-3.55-1.84a19.74,19.74,0,0,1,10.82-8.58l-6.88-3.57,1.48-2.85,10.9,5.65Z"/><path class="cls-30" d="M948.78,432.63l4.73-9.12-3.35-1.74,1.18-2.27c2.11,1.07,4.22.66,5.19-.65l2.92,1.52-7.28,14Z"/><path class="cls-29" d="M82.81,419.76l-1.94,2.17v4.62H77V409.29h3.85v7.25l6.3-7.25h5.07l-6.72,7.47,6.74,9.79h-4.8Z"/><path class="cls-29" d="M97.57,426.55h-3.7v-12.1h3.58v1.39a4,4,0,0,1,3.38-1.71c3,0,4.41,2.17,4.41,4.83v7.59h-3.7v-7a1.88,1.88,0,0,0-2-2.1,2,2,0,0,0-2,2.12Z"/><path class="cls-29" d="M120.34,420.49a6.43,6.43,0,1,1-6.43-6.41A6.26,6.26,0,0,1,120.34,420.49Zm-3.7,0a2.74,2.74,0,1,0-5.46,0,2.74,2.74,0,1,0,5.46,0Z"/><path class="cls-29" d="M133.17,414.45l2.36,7.18,2-7.18h3.62l-3.75,12.1h-3.67l-2.63-7.81-2.59,7.81h-3.75L121,414.45h3.84l2,7.16,2.39-7.16Z"/><path class="cls-29" d="M145.22,422.56a1.73,1.73,0,0,0,1.9,1.63c.95,0,1.42-.51,1.42-1.05s-.29-.8-1.2-1l-1.38-.32c-2.59-.56-3.61-2-3.61-3.73,0-2.21,2-4,4.65-4,3.51,0,4.73,2.2,4.85,3.61l-3.07.56a1.6,1.6,0,0,0-1.73-1.49,1.18,1.18,0,0,0-1.31,1.05c0,.51.41.8.95.9l1.6.32c2.51.51,3.73,2,3.73,3.8,0,2.07-1.58,4.09-4.82,4.09-3.8,0-5-2.46-5.12-3.8Z"/><line class="cls-31" x1="108.59" y1="296.48" x2="108.59" y2="404.72"/><polygon class="cls-29" points="96.32 306.42 98.52 308.46 108.59 297.63 118.66 308.46 120.86 306.42 108.59 293.22 96.32 306.42"/><line class="cls-31" x1="108.59" y1="433.72" x2="108.59" y2="554.22"/><path class="cls-29" d="M290.75,957.42,301.65,944l4.86,4c4,3.27,4.63,8,1.26,12.17s-8.14,4.49-12.18,1.2Zm7,1c2.06,1.68,4.71,1.86,6.9-.82s1.48-5.26-.58-6.94l-1.73-1.41L296,957Z"/><path class="cls-29" d="M304.27,968.43l7.64-9.38,2.87,2.33-7.64,9.39ZM317,955.65A2.17,2.17,0,1,1,314.3,959a2.17,2.17,0,0,1,2.74-3.36Z"/><path class="cls-29" d="M321,971.12a5,5,0,0,0-.83-.83c-1.16-.94-2.75-1.11-4.27.76l-3.34,4.1-2.87-2.34,7.65-9.38,2.77,2.26L319,967a3.75,3.75,0,0,1,4.22,1.34Z"/><path class="cls-29" d="M328,983.24a5.45,5.45,0,0,1-6.76-.53,6.17,6.17,0,0,1-.81-9,6.1,6.1,0,0,1,8.71-1.13c2.91,2.36,3.24,5.62.78,8.64a6.53,6.53,0,0,1-.78.84l-6.53-5.32a2.61,2.61,0,0,0,.66,3.55,2.32,2.32,0,0,0,2.88.31Zm-.07-5.23a2.18,2.18,0,0,0-.6-3.13,2.3,2.3,0,0,0-3.16.07Z"/><path class="cls-29" d="M333.78,984.67a2.78,2.78,0,0,0,.3,4.11,2.5,2.5,0,0,0,3.09.19l1.9,2.83a5.72,5.72,0,0,1-7.14-.38,6.31,6.31,0,0,1-1-9.07,6.24,6.24,0,0,1,9-1,5.64,5.64,0,0,1,1.85,6.94l-3.2-1.32a2.37,2.37,0,0,0-.75-2.94A2.75,2.75,0,0,0,333.78,984.67Z"/><path class="cls-29" d="M349.47,989.63l1.83,1.49-2,2.51-1.84-1.49-2.86,3.51a1.13,1.13,0,0,0,.24,1.83,5.25,5.25,0,0,0,.84.52l-1.94,2.38a4.46,4.46,0,0,1-1.71-1c-1.94-1.59-2.19-3.71-.67-5.58l3.27-4-1.66-1.35L345,986l.47.38a1.78,1.78,0,0,0,2.7-.34l1-1.21,2.57,2.09Z"/><path class="cls-29" d="M358.71,1004.94a6.43,6.43,0,1,1-.94-9A6.27,6.27,0,0,1,358.71,1004.94Zm-2.87-2.34a2.74,2.74,0,1,0-4.23-3.44,2.74,2.74,0,1,0,4.23,3.44Z"/><path class="cls-29" d="M368,1009.45a5,5,0,0,0-.83-.83c-1.15-.94-2.74-1.11-4.27.76l-3.33,4.1-2.87-2.34,7.64-9.38,2.78,2.26-1,1.26a3.42,3.42,0,0,1,3.54.63,4,4,0,0,1,.68.71Z"/><path class="cls-30" d="M296.92,993.34,293,998.16l-3-2.43,10.91-13.39,5,4.11c2.72,2.21,3.13,5.53,1.1,8s-5.36,2.76-8.08.55Zm3.85-1.14a2.21,2.21,0,1,0,2.78-3.41l-1.74-1.42L299,990.79Z"/><path class="cls-30" d="M306.69,1002.55a2.48,2.48,0,0,0,.49,3.45,2.23,2.23,0,0,0,3.28-.28,2.28,2.28,0,0,0-.43-3.37,2.86,2.86,0,0,0-2.37-.6c0-.07-1.93-3-2-3l6.56-5.24,7.12,5.8-2,2.49-5.06-4.12-2.37,1.9a4.47,4.47,0,0,1,2.61,1c2.52,2,3,4.9.9,7.54-1.86,2.29-5.26,2.91-8.32.42-2.72-2.21-3.07-5.6-1.65-7.65Z"/><path class="cls-30" d="M328.33,1010.5a18.64,18.64,0,0,0-12.84,6l-3.1-2.52a19.76,19.76,0,0,1,12.33-6.2l-6-4.89,2-2.49,9.51,7.75Z"/></g></g></svg>