<?xml version="1.0" encoding="utf-8"?>
<!-- Generator: Adobe Illustrator 24.0.2, SVG Export Plug-In . SVG Version: 6.00 Build 0)  -->
<svg version="1.1" id="Capa_1" xmlns="http://www.w3.org/2000/svg" xmlns:xlink="http://www.w3.org/1999/xlink" x="0px" y="0px"
	 viewBox="0 0 576.7 642.6" style="enable-background:new 0 0 576.7 642.6;" xml:space="preserve">
<style type="text/css">
	.st0{fill:#F1D333;}
	.st1{fill:#F7F7F7;}
	.st2{opacity:0.18;fill:#5E6B75;}
	.st3{fill:#89CC8F;}
	.st4{fill:#E26A61;}
</style>
<path class="st0" d="M503.6,334.1c-3.5,0-6.7-2.4-7.5-6c-3.1-13.6,9.1-38.4,29.2-77.6c16.4-32.1,35.1-68.5,36-88.3
	c0.7-17-7.8-27.9-25.3-32.4c-4.1-1.1-6.6-5.2-5.6-9.4c1.1-4.1,5.2-6.6,9.4-5.6c24.5,6.3,38,23.8,36.9,48
	c-1,23.2-19.6,59.5-37.6,94.7c-8.1,15.9-15.8,30.8-21.1,43.3c-7.2,16.8-7.1,22.3-6.8,23.9c0.9,4.1-1.6,8.3-5.8,9.2
	C504.8,334.1,504.2,334.1,503.6,334.1L503.6,334.1z"/>
<g>
	
		<image style="overflow:visible;opacity:0.2;" width="520" height="630" xlink:href="819784E6548AFE6.png"  transform="matrix(1 0 0 1 4.7362 -17.2689)">
	</image>
	<g>
		<path class="st1" d="M440.6,35.8h-352c-13.2,0-23.9,10.7-23.9,23.9v462.1c0,13.2,10.7,23.9,23.9,23.9h352
			c13.2,0,23.9-10.7,23.9-23.9V59.7C464.5,46.5,453.8,35.8,440.6,35.8z"/>
	</g>
</g>
<circle class="st2" cx="155" cy="161.9" r="41.4"/>
<circle class="st2" cx="264.6" cy="161.9" r="41.4"/>
<circle class="st3" cx="374.2" cy="161.9" r="41.4"/>
<circle class="st3" cx="155" cy="315.3" r="41.4"/>
<circle class="st2" cx="264.6" cy="315.3" r="41.4"/>
<circle class="st2" cx="374.2" cy="315.3" r="41.4"/>
<ellipse transform="matrix(0.9985 -5.530038e-02 5.530038e-02 0.9985 -25.9881 9.2985)" class="st2" cx="155" cy="474.2" rx="41.4" ry="41.4"/>
<circle class="st3" cx="264.6" cy="474.2" r="41.4"/>
<circle class="st2" cx="374.2" cy="474.2" r="41.4"/>
<path class="st2" d="M329.4,95.9H113.6c-4.3,0-7.7-3.4-7.7-7.7s3.4-7.7,7.7-7.7h215.9c4.3,0,7.7,3.4,7.7,7.7S333.7,95.9,329.4,95.9z
	"/>
<path class="st2" d="M329.4,249.4H113.6c-4.3,0-7.7-3.4-7.7-7.7s3.4-7.7,7.7-7.7h215.9c4.3,0,7.7,3.4,7.7,7.7
	S333.7,249.4,329.4,249.4z"/>
<path class="st2" d="M329.4,408.3H113.6c-4.3,0-7.7-3.4-7.7-7.7s3.4-7.7,7.7-7.7h215.9c4.3,0,7.7,3.4,7.7,7.7
	S333.7,408.3,329.4,408.3z"/>
<path class="st0" d="M540.1,134.7l10.7-26.9c2.7-6.8-0.6-14.5-7.4-17.2l-20.9-8.3c-6.8-2.7-14.5,0.6-17.2,7.4l-10.7,26.9"/>
<path class="st0" d="M539.7,89.1c-6.8-2.7-14.5,0.6-17.2,7.4l-10.7,26.9l-17.1-6.8l10.7-26.9c2.7-6.8,10.4-10.1,17.2-7.4L539.7,89.1
	z"/>
<path class="st4" d="M542.2,146.6c-4.4,33.2-16.5,77.2-35.1,123.8c-7.3,18.2-15,35.4-22.8,51.3c-2.3,4.7-4.7,9.3-7,13.8
	c-29.8,56.3-60.6,91.7-77.5,85c-16.8-6.7-14.9-53.6,2.3-115c1.4-4.9,2.8-9.8,4.3-14.8c5.2-16.9,11.5-34.7,18.7-52.9
	c18.6-46.6,40.1-86.9,59.7-114c5.3-7.4,15-10.2,23.5-6.8l21.5,8.6C538.3,128.9,543.4,137.6,542.2,146.6L542.2,146.6z"/>
<path class="st4" d="M399.8,420.5c-22.6-9-11.3-90.8,25.4-182.7c18.6-46.6,40.1-86.8,59.7-114c5.3-7.4,15-10.2,23.5-6.8l7.8,3.1
	c-2.3-0.9-6.6,4-10.5,12c-14.1,29.4-32.2,71-50.8,117.6C418.2,341.5,393.6,418,399.8,420.5L399.8,420.5z"/>
<path class="st0" d="M484.3,321.7c-2.3,4.7-4.7,9.3-7,13.8l-47.9-19.1l-27.2-10.9c1.4-4.9,2.8-9.8,4.3-14.8l28.2,11.3L484.3,321.7z"
	/>
<path class="st0" d="M434.7,302c-1.8,4.9-3.6,9.7-5.3,14.4l-27.2-10.9c1.4-4.9,2.8-9.8,4.3-14.8L434.7,302z"/>
</svg>
