<svg xmlns="http://www.w3.org/2000/svg" viewBox="0 0 1261 902.42"><defs><style>.cls-1{fill:#60c66e;}.cls-2{fill:#fff;}.cls-3{fill:#3a89ab;}.cls-4{fill:#e26a61;}.cls-5{fill:#888;}.cls-6{fill:#f2f2f2;}.cls-7{fill:#97c3d3;}.cls-8{fill:#e6e6e6;}.cls-9{fill:none;stroke:#bbb;stroke-miterlimit:10;stroke-width:4px;}.cls-10{fill:#bbb;}</style></defs><title>architecture_1</title><g id="Capa_2" data-name="Capa 2"><g id="Capa_1-2" data-name="Capa 1"><rect class="cls-1" width="788" height="141" rx="45.43"/><path class="cls-2" d="M278.65,78V58.77h12.16v4h-7.88v3.65h7.15v3.76h-7.15V73.9h7.9V78Z"/><path class="cls-2" d="M298.22,78h-4.11V64.51h4v1.54a4.41,4.41,0,0,1,3.76-1.89c3.38,0,4.9,2.41,4.9,5.36V78h-4.12V70.22a2.09,2.09,0,0,0-2.19-2.33,2.19,2.19,0,0,0-2.22,2.36Z"/><path class="cls-2" d="M323.44,75.55c0,1.22.09,2.12.11,2.41H319.6a8.61,8.61,0,0,1-.11-1.3,4.33,4.33,0,0,1-3.6,1.6c-3.79,0-6.66-2.92-6.66-7.06s2.71-7,6.53-7c2.3,0,3.3.86,3.62,1.38v-7.2h4.06Zm-7-1a3,3,0,0,0,3-3.36,3,3,0,1,0-6.06,0A3,3,0,0,0,316.41,74.58Z"/><path class="cls-2" d="M327.15,83.11V64.51h4v1.38a4.77,4.77,0,0,1,3.95-1.7c3.9,0,6.25,3,6.25,7s-2.65,7.06-6.41,7.06a4.75,4.75,0,0,1-3.66-1.35v6.2Zm7.09-15.22a3,3,0,0,0-3,3.33,3.06,3.06,0,1,0,6.09,0A3,3,0,0,0,334.24,67.89Z"/><path class="cls-2" d="M357.3,71.22a7.15,7.15,0,1,1-7.15-7.12A7,7,0,0,1,357.3,71.22Zm-4.11,0a3,3,0,1,0-6.07,0,3.05,3.05,0,1,0,6.07,0Z"/><path class="cls-2" d="M362,58a2.41,2.41,0,1,1-2.38,2.41A2.42,2.42,0,0,1,362,58Zm-2,20V64.51h4.11V78Z"/><path class="cls-2" d="M371.78,78h-4.12V64.51h4v1.54a4.41,4.41,0,0,1,3.76-1.89c3.39,0,4.9,2.41,4.9,5.36V78h-4.11V70.22A2.09,2.09,0,0,0,374,67.89a2.19,2.19,0,0,0-2.22,2.36Z"/><path class="cls-2" d="M388.69,64.51h2.63v3.6h-2.63v5c0,1.11.6,1.4,1.49,1.4a5.38,5.38,0,0,0,1.08-.13v3.41a4.9,4.9,0,0,1-2.14.38c-2.78,0-4.49-1.65-4.49-4.33V68.11h-2.38v-3.6h.68A2,2,0,0,0,385,62.32V60.59h3.68Z"/><path class="cls-2" d="M399.92,68.41a9.77,9.77,0,0,1,9.91-10c5.76,0,8.31,3.7,8.93,6.47l-4,1.27a4.64,4.64,0,0,0-4.9-3.58,5.79,5.79,0,0,0,.05,11.56,4.91,4.91,0,0,0,5-3.6L419,71.66c-.62,2.65-3.16,6.71-9.12,6.71A9.66,9.66,0,0,1,399.92,68.41Z"/><path class="cls-2" d="M434.54,71.22a7.15,7.15,0,1,1-7.15-7.12A7,7,0,0,1,434.54,71.22Zm-4.12,0a3,3,0,1,0-6.06,0,3.05,3.05,0,0,0,3,3.36A3,3,0,0,0,430.42,71.22Z"/><path class="cls-2" d="M441.3,78h-4.11V64.51h4v1.54a4.41,4.41,0,0,1,3.76-1.89c3.38,0,4.9,2.41,4.9,5.36V78h-4.12V70.22a2.09,2.09,0,0,0-2.19-2.33,2.19,2.19,0,0,0-2.22,2.36Z"/><path class="cls-2" d="M458.21,64.51h2.63v3.6h-2.63v5c0,1.11.6,1.4,1.49,1.4a5.49,5.49,0,0,0,1.09-.13v3.41a5,5,0,0,1-2.14.38c-2.79,0-4.5-1.65-4.5-4.33V68.11h-2.38v-3.6h.68a2,2,0,0,0,2.08-2.19V60.59h3.68Z"/><path class="cls-2" d="M472.15,68.57a5.46,5.46,0,0,0-1.3-.13c-1.65,0-3.14,1-3.14,3.65V78H463.6V64.51h4v1.81a3.8,3.8,0,0,1,3.49-1.94,4.09,4.09,0,0,1,1.08.13Z"/><path class="cls-2" d="M487.8,71.22a7.15,7.15,0,1,1-7.15-7.12A7,7,0,0,1,487.8,71.22Zm-4.12,0a3,3,0,1,0-6.06,0,3.05,3.05,0,0,0,3,3.36A3,3,0,0,0,483.68,71.22Z"/><path class="cls-2" d="M490.45,78V58.37h4.11V78Z"/><path class="cls-2" d="M498.19,78V58.37h4.11V78Z"/><path class="cls-2" d="M518.16,74.09c-.65,2.33-2.79,4.28-6.2,4.28a7.14,7.14,0,0,1-.29-14.27c4.16,0,6.73,2.58,6.73,6.91a8.17,8.17,0,0,1-.08,1.27H509a2.91,2.91,0,0,0,3.06,2.6,2.6,2.6,0,0,0,2.7-1.76Zm-3.73-4.46a2.42,2.42,0,0,0-2.71-2.28A2.56,2.56,0,0,0,509,69.63Z"/><path class="cls-2" d="M529.61,68.57a5.51,5.51,0,0,0-1.3-.13c-1.65,0-3.14,1-3.14,3.65V78h-4.12V64.51h4v1.81a3.81,3.81,0,0,1,3.5-1.94,4.14,4.14,0,0,1,1.08.13Z"/><path class="cls-2" d="M534.59,73.52a1.92,1.92,0,0,0,2.11,1.82c1,0,1.57-.57,1.57-1.17s-.33-.89-1.33-1.11l-1.54-.35c-2.87-.62-4-2.24-4-4.14,0-2.46,2.17-4.47,5.17-4.47,3.9,0,5.25,2.44,5.39,4l-3.41.62a1.77,1.77,0,0,0-1.92-1.65,1.32,1.32,0,0,0-1.47,1.17c0,.56.47.89,1.06,1l1.79.35c2.79.57,4.14,2.25,4.14,4.22,0,2.3-1.76,4.55-5.36,4.55-4.22,0-5.58-2.73-5.69-4.22Z"/><rect class="cls-3" y="239" width="375" height="141" rx="45.43"/><path class="cls-2" d="M169.8,301.79a2.89,2.89,0,0,0-3.19-2.41c-1.6,0-2.63,1-2.63,2.05s.57,1.6,1.9,1.84l2.57.49c3.65.68,5.55,3,5.55,5.77,0,3-2.52,6.06-7.09,6.06-5.31,0-7.58-3.44-7.85-6.14l3.92-.95c.16,1.76,1.35,3.3,4,3.3,1.68,0,2.71-.81,2.71-2,0-1-.79-1.68-2.06-1.92l-2.63-.49c-3.24-.62-5.22-2.79-5.22-5.63,0-3.63,3.19-6.17,6.88-6.17,4.79,0,6.6,2.87,7,5.11Z"/><path class="cls-2" d="M188.86,311.31c-.65,2.33-2.79,4.28-6.2,4.28a7.14,7.14,0,0,1-.3-14.26c4.17,0,6.74,2.57,6.74,6.9a8.17,8.17,0,0,1-.08,1.27h-9.37a2.91,2.91,0,0,0,3.06,2.6,2.6,2.6,0,0,0,2.71-1.76Zm-3.74-4.46a2.42,2.42,0,0,0-2.71-2.28,2.57,2.57,0,0,0-2.68,2.28Z"/><path class="cls-2" d="M194.92,307.42l3.16-.49c.73-.11,1-.46,1-.92,0-.79-.68-1.46-2-1.46a2.16,2.16,0,0,0-2.3,2l-3.57-.73c.16-1.92,1.95-4.46,5.9-4.46,4.36,0,5.95,2.43,5.95,5.19v6.58a12.55,12.55,0,0,0,.17,2.09h-3.71a6.32,6.32,0,0,1-.14-1.52,4.23,4.23,0,0,1-3.79,1.89c-3,0-4.65-1.94-4.65-4.08C190.94,309.09,192.7,307.74,194.92,307.42Zm4.14,2.49v-.6l-2.55.41c-.86.13-1.51.54-1.51,1.49,0,.7.46,1.38,1.59,1.38S199.06,312,199.06,309.91Z"/><path class="cls-2" d="M215.08,305.79a5.46,5.46,0,0,0-1.3-.13c-1.65,0-3.14,1-3.14,3.65v5.88h-4.12V301.73h4v1.82a3.8,3.8,0,0,1,3.5-1.95,4.14,4.14,0,0,1,1.08.13Z"/><path class="cls-2" d="M220.52,308.47a3.08,3.08,0,0,0,3.14,3.33,2.78,2.78,0,0,0,2.79-2l3.62,1.11a6.36,6.36,0,0,1-6.41,4.68,7,7,0,0,1-7.23-7.12,6.94,6.94,0,0,1,7.09-7.14A6.28,6.28,0,0,1,230,306l-3.68,1.11a2.65,2.65,0,0,0-2.71-2A3,3,0,0,0,220.52,308.47Z"/><path class="cls-2" d="M236.7,315.19h-4.11v-19.6h4.11v7a5.06,5.06,0,0,1,3.44-1.22c3.52,0,5.09,2.41,5.09,5.36v8.45h-4.12v-7.75a2.08,2.08,0,0,0-2.19-2.32,2.16,2.16,0,0,0-2.22,2.16Z"/><rect class="cls-3" x="413" y="239" width="375" height="141" rx="45.43"/><path class="cls-2" d="M472.29,295.65a9.72,9.72,0,0,1,10,10,9.91,9.91,0,0,1-2.16,6.39l2.35,2.57L479.63,317l-2.36-2.6a10.2,10.2,0,0,1-5,1.25,10,10,0,0,1,0-20Zm0,15.79a6.05,6.05,0,0,0,1.95-.33L471.43,308l2.84-2.38,2.81,3.09a6.27,6.27,0,0,0,.73-3.09,5.54,5.54,0,1,0-5.52,5.8Z"/><path class="cls-2" d="M493.48,313.9a4.18,4.18,0,0,1-3.6,1.65,4.93,4.93,0,0,1-5.11-5.25v-8.5h4.11v7.63a2.09,2.09,0,0,0,2.17,2.33,2.14,2.14,0,0,0,2.24-2.3V301.8h4.12v11a23.57,23.57,0,0,0,.13,2.41h-4A10.38,10.38,0,0,1,493.48,313.9Z"/><path class="cls-2" d="M513.24,311.38c-.65,2.33-2.79,4.28-6.2,4.28a7.14,7.14,0,0,1-.3-14.27c4.17,0,6.74,2.57,6.74,6.91a8.28,8.28,0,0,1-.08,1.27H504a2.92,2.92,0,0,0,3.06,2.6,2.6,2.6,0,0,0,2.7-1.76Zm-3.74-4.46a2.41,2.41,0,0,0-2.7-2.28,2.56,2.56,0,0,0-2.68,2.28Z"/><path class="cls-2" d="M518.52,310.81a1.92,1.92,0,0,0,2.11,1.82c1,0,1.57-.57,1.57-1.17s-.33-.89-1.33-1.11l-1.54-.35c-2.87-.62-4-2.25-4-4.14,0-2.46,2.17-4.47,5.17-4.47,3.9,0,5.25,2.44,5.39,4l-3.41.62a1.77,1.77,0,0,0-1.92-1.65c-.79,0-1.47.46-1.47,1.16s.46.9,1.06,1l1.79.35c2.78.57,4.14,2.24,4.14,4.22,0,2.3-1.76,4.55-5.36,4.55-4.22,0-5.58-2.74-5.69-4.22Z"/><path class="cls-2" d="M533.67,301.8h2.63v3.6h-2.63v5c0,1.11.6,1.41,1.49,1.41a5.38,5.38,0,0,0,1.08-.13v3.41a4.9,4.9,0,0,1-2.14.38c-2.78,0-4.49-1.66-4.49-4.33V305.4h-2.38v-3.6h.67a2,2,0,0,0,2.09-2.19v-1.74h3.68Z"/><path class="cls-2" d="M541.25,295.28a2.41,2.41,0,1,1-2.38,2.4A2.41,2.41,0,0,1,541.25,295.28Zm-2,20V301.8h4.11v13.45Z"/><path class="cls-2" d="M560.25,308.51a7.15,7.15,0,1,1-7.15-7.12A7,7,0,0,1,560.25,308.51Zm-4.12,0a3,3,0,1,0-6.06,0,3.05,3.05,0,0,0,3,3.36A3,3,0,0,0,556.13,308.51Z"/><path class="cls-2" d="M567,315.25H562.9V301.8h4v1.54a4.41,4.41,0,0,1,3.76-1.89c3.38,0,4.9,2.41,4.9,5.36v8.44h-4.12v-7.74a2.08,2.08,0,0,0-2.19-2.33,2.19,2.19,0,0,0-2.22,2.36Z"/><path class="cls-2" d="M581.38,310.81a1.92,1.92,0,0,0,2.11,1.82c1.06,0,1.57-.57,1.57-1.17s-.32-.89-1.32-1.11l-1.55-.35c-2.87-.62-4-2.25-4-4.14,0-2.46,2.16-4.47,5.17-4.47,3.89,0,5.25,2.44,5.38,4l-3.41.62a1.76,1.76,0,0,0-1.92-1.65,1.31,1.31,0,0,0-1.46,1.16c0,.57.46.9,1,1l1.79.35c2.79.57,4.14,2.24,4.14,4.22,0,2.3-1.76,4.55-5.36,4.55-4.22,0-5.57-2.74-5.68-4.22Z"/><path class="cls-2" d="M612.8,315.25l-.27-1.95a6.35,6.35,0,0,1-5.38,2.36,9.55,9.55,0,0,1-9.72-10,9.75,9.75,0,0,1,10-10c5.49,0,8,3.25,8.87,5.93L612.18,303a4.63,4.63,0,0,0-4.76-3.36c-2.6,0-5.66,1.73-5.66,6,0,4,2.65,6.09,5.76,6.09s4.5-2.06,4.74-3.14H606.5V305h9.77v10.26Z"/><path class="cls-2" d="M631.83,311.38c-.65,2.33-2.79,4.28-6.2,4.28a7.14,7.14,0,0,1-.3-14.27c4.17,0,6.74,2.57,6.74,6.91a8.28,8.28,0,0,1-.08,1.27h-9.37a2.93,2.93,0,0,0,3.06,2.6,2.61,2.61,0,0,0,2.71-1.76Zm-3.74-4.46a2.42,2.42,0,0,0-2.71-2.28,2.55,2.55,0,0,0-2.67,2.28Z"/><path class="cls-2" d="M638.83,315.25h-4.11V301.8h4v1.54a4.41,4.41,0,0,1,3.76-1.89c3.39,0,4.9,2.41,4.9,5.36v8.44h-4.11v-7.74a2.09,2.09,0,0,0-2.2-2.33,2.19,2.19,0,0,0-2.22,2.36Z"/><path class="cls-2" d="M663.06,311.38c-.65,2.33-2.79,4.28-6.2,4.28a7.14,7.14,0,0,1-.3-14.27c4.17,0,6.74,2.57,6.74,6.91a8.28,8.28,0,0,1-.08,1.27h-9.36a2.91,2.91,0,0,0,3,2.6,2.61,2.61,0,0,0,2.71-1.76Zm-3.74-4.46a2.41,2.41,0,0,0-2.7-2.28,2.56,2.56,0,0,0-2.68,2.28Z"/><path class="cls-2" d="M674.5,305.86a5.47,5.47,0,0,0-1.29-.14c-1.66,0-3.14,1-3.14,3.66v5.87H666V301.8h4v1.81a3.81,3.81,0,0,1,3.49-1.95,4,4,0,0,1,1.08.14Z"/><path class="cls-2" d="M680.27,307.48l3.16-.48c.74-.11,1-.46,1-.92,0-.79-.68-1.47-2-1.47a2.17,2.17,0,0,0-2.3,2l-3.57-.73c.16-1.92,2-4.47,5.9-4.47,4.36,0,6,2.44,6,5.2v6.58a12.9,12.9,0,0,0,.16,2.08h-3.71a6.19,6.19,0,0,1-.14-1.51,4.25,4.25,0,0,1-3.79,1.89c-3,0-4.65-1.95-4.65-4.09C676.29,309.16,678.05,307.81,680.27,307.48Zm4.14,2.49v-.59l-2.54.4c-.87.14-1.52.55-1.52,1.49,0,.71.46,1.38,1.6,1.38S684.41,312.06,684.41,310Z"/><path class="cls-2" d="M696.67,301.8h2.62v3.6h-2.62v5c0,1.11.59,1.41,1.49,1.41a5.38,5.38,0,0,0,1.08-.13v3.41a4.9,4.9,0,0,1-2.14.38c-2.79,0-4.49-1.66-4.49-4.33V305.4h-2.38v-3.6h.67a2,2,0,0,0,2.09-2.19v-1.74h3.68Z"/><path class="cls-2" d="M715.37,308.51a7.15,7.15,0,1,1-7.15-7.12A7,7,0,0,1,715.37,308.51Zm-4.11,0a3,3,0,1,0-6.07,0,3.05,3.05,0,1,0,6.07,0Z"/><path class="cls-2" d="M726.57,305.86a5.49,5.49,0,0,0-1.3-.14c-1.65,0-3.14,1-3.14,3.66v5.87H718V301.8h4v1.81a3.81,3.81,0,0,1,3.49-1.95,4,4,0,0,1,1.08.14Z"/><rect class="cls-3" x="886" y="239" width="375" height="141" rx="45.43"/><path class="cls-2" d="M953.3,305.7a9.78,9.78,0,0,1,9.91-10.05c5.77,0,8.31,3.71,8.93,6.47l-4,1.28a4.64,4.64,0,0,0-4.9-3.58,5.79,5.79,0,0,0,.06,11.56,4.89,4.89,0,0,0,5-3.6l4.09,1.17c-.62,2.65-3.17,6.71-9.12,6.71A9.66,9.66,0,0,1,953.3,305.7Z"/><path class="cls-2" d="M977.91,307.48l3.16-.48c.73-.11,1-.46,1-.92,0-.79-.68-1.47-2-1.47a2.17,2.17,0,0,0-2.3,2l-3.57-.73c.16-1.92,1.95-4.47,5.9-4.47,4.36,0,5.95,2.44,5.95,5.2v6.58a12.38,12.38,0,0,0,.17,2.08h-3.71a6.19,6.19,0,0,1-.14-1.51,4.25,4.25,0,0,1-3.79,1.89c-3,0-4.65-1.95-4.65-4.09C973.93,309.16,975.69,307.81,977.91,307.48Zm4.14,2.49v-.59l-2.55.4c-.86.14-1.51.55-1.51,1.49,0,.71.46,1.38,1.59,1.38S982.05,312.06,982.05,310Z"/><path class="cls-2" d="M994.31,301.8h2.62v3.6h-2.62v5c0,1.11.59,1.41,1.49,1.41a5.38,5.38,0,0,0,1.08-.13v3.41a4.9,4.9,0,0,1-2.14.38c-2.79,0-4.49-1.66-4.49-4.33V305.4h-2.38v-3.6h.67a2,2,0,0,0,2.09-2.19v-1.74h3.68Z"/><path class="cls-2" d="M1011.93,311.38c-.65,2.33-2.79,4.28-6.2,4.28a7.14,7.14,0,0,1-.3-14.27c4.17,0,6.74,2.57,6.74,6.91a8.28,8.28,0,0,1-.08,1.27h-9.37a2.92,2.92,0,0,0,3.06,2.6,2.61,2.61,0,0,0,2.71-1.76Zm-3.74-4.46a2.42,2.42,0,0,0-2.71-2.28,2.57,2.57,0,0,0-2.68,2.28Z"/><path class="cls-2" d="M1017.5,315a2.81,2.81,0,0,0,2.9,2.25c2.05,0,3.33-1,3.33-3.44v-.62a4.21,4.21,0,0,1-3.61,1.51,6.26,6.26,0,0,1-6.25-6.55,6.33,6.33,0,0,1,6.25-6.57c2.2,0,3.36,1,3.74,1.67V301.8h3.93v11.77c0,3.87-2.17,7.23-7.21,7.23-3.87,0-6.33-2.38-6.71-4.79Zm6.25-6.85a2.88,2.88,0,1,0-5.76,0,2.79,2.79,0,0,0,2.89,3A2.76,2.76,0,0,0,1023.75,308.13Z"/><path class="cls-2" d="M1044.57,308.51a7.15,7.15,0,1,1-7.15-7.12A7,7,0,0,1,1044.57,308.51Zm-4.12,0a3,3,0,1,0-6.06,0,3.05,3.05,0,0,0,3,3.36A3,3,0,0,0,1040.45,308.51Z"/><path class="cls-2" d="M1055.77,305.86a5.49,5.49,0,0,0-1.3-.14c-1.65,0-3.14,1-3.14,3.66v5.87h-4.12V301.8h4v1.81a3.82,3.82,0,0,1,3.5-1.95,4.11,4.11,0,0,1,1.08.14Z"/><path class="cls-2" d="M1060.29,295.28a2.41,2.41,0,1,1-2.39,2.4A2.41,2.41,0,0,1,1060.29,295.28Zm-2,20V301.8h4.12v13.45Z"/><path class="cls-2" d="M1078.2,311.38c-.65,2.33-2.78,4.28-6.2,4.28a7.14,7.14,0,0,1-.29-14.27c4.17,0,6.74,2.57,6.74,6.91a9.92,9.92,0,0,1-.08,1.27H1069a2.92,2.92,0,0,0,3.06,2.6,2.61,2.61,0,0,0,2.71-1.76Zm-3.73-4.46a2.42,2.42,0,0,0-2.71-2.28,2.56,2.56,0,0,0-2.68,2.28Z"/><path class="cls-2" d="M1083.48,310.81a1.92,1.92,0,0,0,2.11,1.82c1.06,0,1.57-.57,1.57-1.17s-.33-.89-1.33-1.11l-1.54-.35c-2.87-.62-4-2.25-4-4.14,0-2.46,2.17-4.47,5.17-4.47,3.9,0,5.26,2.44,5.39,4l-3.41.62a1.77,1.77,0,0,0-1.92-1.65,1.31,1.31,0,0,0-1.46,1.16c0,.57.46.9,1,1l1.79.35c2.79.57,4.14,2.24,4.14,4.22,0,2.3-1.76,4.55-5.36,4.55-4.22,0-5.58-2.74-5.68-4.22Z"/><path class="cls-2" d="M1118.18,315.25V302.53l-5,12.72h-3.47l-5-12.56v12.56h-4.07V296.06h5.58l5.28,13,5-13h5.87v19.19Z"/><path class="cls-2" d="M1129.4,307.48l3.17-.48c.73-.11,1-.46,1-.92,0-.79-.67-1.47-2-1.47a2.16,2.16,0,0,0-2.3,2l-3.57-.73c.16-1.92,1.94-4.47,5.9-4.47,4.35,0,6,2.44,6,5.2v6.58a14.31,14.31,0,0,0,.16,2.08H1134a7.23,7.23,0,0,1-.13-1.51,4.25,4.25,0,0,1-3.79,1.89c-2.95,0-4.66-1.95-4.66-4.09C1125.42,309.16,1127.18,307.81,1129.4,307.48Zm4.14,2.49v-.59l-2.54.4c-.87.14-1.52.55-1.52,1.49,0,.71.47,1.38,1.6,1.38S1133.54,312.06,1133.54,310Z"/><path class="cls-2" d="M1145.13,315.25H1141V301.8h4v1.54a4.41,4.41,0,0,1,3.76-1.89c3.39,0,4.9,2.41,4.9,5.36v8.44h-4.11v-7.74a2.08,2.08,0,0,0-2.19-2.33,2.18,2.18,0,0,0-2.22,2.36Z"/><path class="cls-2" d="M1160.28,307.48l3.17-.48c.73-.11,1-.46,1-.92,0-.79-.67-1.47-2-1.47a2.16,2.16,0,0,0-2.3,2l-3.58-.73c.17-1.92,2-4.47,5.9-4.47,4.36,0,6,2.44,6,5.2v6.58a14.31,14.31,0,0,0,.16,2.08h-3.71a7.23,7.23,0,0,1-.13-1.51,4.26,4.26,0,0,1-3.79,1.89c-3,0-4.66-1.95-4.66-4.09C1156.3,309.16,1158.06,307.81,1160.28,307.48Zm4.14,2.49v-.59l-2.54.4c-.87.14-1.52.55-1.52,1.49,0,.71.46,1.38,1.6,1.38S1164.42,312.06,1164.42,310Z"/><path class="cls-2" d="M1174.49,315a2.81,2.81,0,0,0,2.9,2.25c2,0,3.33-1,3.33-3.44v-.62a4.18,4.18,0,0,1-3.6,1.51,6.26,6.26,0,0,1-6.26-6.55,6.33,6.33,0,0,1,6.26-6.57c2.19,0,3.35,1,3.73,1.67V301.8h3.93v11.77c0,3.87-2.17,7.23-7.2,7.23-3.87,0-6.34-2.38-6.72-4.79Zm6.25-6.85a2.88,2.88,0,1,0-5.76,0,2.79,2.79,0,0,0,2.89,3A2.76,2.76,0,0,0,1180.74,308.13Z"/><path class="cls-2" d="M1200.47,311.38c-.65,2.33-2.79,4.28-6.2,4.28a7.14,7.14,0,0,1-.29-14.27c4.16,0,6.74,2.57,6.74,6.91a7.81,7.81,0,0,1-.09,1.27h-9.36a2.92,2.92,0,0,0,3.06,2.6,2.61,2.61,0,0,0,2.71-1.76Zm-3.73-4.46a2.42,2.42,0,0,0-2.71-2.28,2.56,2.56,0,0,0-2.68,2.28Z"/><path class="cls-2" d="M1211.92,305.86a5.49,5.49,0,0,0-1.3-.14c-1.65,0-3.14,1-3.14,3.66v5.87h-4.11V301.8h4v1.81a3.82,3.82,0,0,1,3.5-1.95,4.11,4.11,0,0,1,1.08.14Z"/><rect class="cls-4" y="478" width="788" height="141" rx="45.43"/><path class="cls-2" d="M257.8,537.06h4.38L257,556.25h-4.41l-4.09-12.72-4.11,12.72h-4.5l-5.22-19.19h4.55l3.16,12.29,4-12.29h4.39l4,12.32Z"/><path class="cls-2" d="M266.29,536.28a2.41,2.41,0,1,1-2.38,2.4A2.42,2.42,0,0,1,266.29,536.28Zm-2,20V542.8h4.12v13.45Z"/><path class="cls-2" d="M280.26,548.46l5.36,7.79h-5l-3.16-4.73L276.09,553v3.3H272v-19.6h4.12v10.67l4.09-4.52h5.33Z"/><path class="cls-2" d="M289.59,536.28a2.41,2.41,0,1,1-2.38,2.4A2.42,2.42,0,0,1,289.59,536.28Zm-2,20V542.8h4.12v13.45Z"/><path class="cls-2" d="M308.51,553.84c0,1.22.08,2.12.11,2.41h-3.95a8.61,8.61,0,0,1-.11-1.3,4.34,4.34,0,0,1-3.6,1.6c-3.79,0-6.66-2.92-6.66-7.06s2.71-7,6.52-7c2.31,0,3.31.87,3.63,1.39v-7.21h4.06Zm-7-1a3,3,0,0,0,3-3.36,3,3,0,1,0-6.07,0A3,3,0,0,0,301.47,552.87Z"/><path class="cls-2" d="M315.25,548.48l3.17-.48c.73-.11,1-.46,1-.92,0-.79-.68-1.47-2-1.47a2.17,2.17,0,0,0-2.3,2l-3.57-.73c.16-1.92,1.95-4.47,5.9-4.47,4.36,0,6,2.44,6,5.2v6.58a12.9,12.9,0,0,0,.16,2.08h-3.71a6.51,6.51,0,0,1-.13-1.51,4.27,4.27,0,0,1-3.79,1.89c-2.95,0-4.66-2-4.66-4.09C311.27,550.16,313,548.81,315.25,548.48Zm4.14,2.49v-.59l-2.54.41c-.87.13-1.52.54-1.52,1.48,0,.71.46,1.38,1.6,1.38S319.39,553.06,319.39,551Z"/><path class="cls-2" d="M331.65,542.8h2.63v3.6h-2.63v5c0,1.11.6,1.41,1.49,1.41a5.38,5.38,0,0,0,1.08-.13v3.41a4.9,4.9,0,0,1-2.14.38c-2.79,0-4.49-1.66-4.49-4.33V546.4h-2.38v-3.6h.67a2,2,0,0,0,2.09-2.19v-1.74h3.68Z"/><path class="cls-2" d="M340.47,548.48l3.17-.48c.73-.11,1-.46,1-.92,0-.79-.67-1.47-2-1.47a2.16,2.16,0,0,0-2.3,2l-3.58-.73c.17-1.92,1.95-4.47,5.9-4.47,4.36,0,6,2.44,6,5.2v6.58a12.9,12.9,0,0,0,.16,2.08h-3.71a7.23,7.23,0,0,1-.13-1.51,4.27,4.27,0,0,1-3.79,1.89c-2.95,0-4.66-2-4.66-4.09C336.49,550.16,338.25,548.81,340.47,548.48Zm4.14,2.49v-.59l-2.54.41c-.87.13-1.52.54-1.52,1.48,0,.71.46,1.38,1.6,1.38S344.61,553.06,344.61,551Z"/><path class="cls-2" d="M359,556.25V537.06h4.28v15.11h8.28v4.08Z"/><path class="cls-2" d="M387.48,549.51a7.15,7.15,0,1,1-7.14-7.12A7,7,0,0,1,387.48,549.51Zm-4.11,0a3,3,0,1,0-6.07,0,3.05,3.05,0,0,0,3,3.36A3,3,0,0,0,383.37,549.51Z"/><path class="cls-2" d="M393.24,549.54a3.08,3.08,0,0,0,3.14,3.33,2.77,2.77,0,0,0,2.79-2L402.8,552a6.38,6.38,0,0,1-6.42,4.68,7,7,0,0,1-7.22-7.12,6.94,6.94,0,0,1,7.09-7.15,6.3,6.3,0,0,1,6.47,4.69L399,548.19a2.65,2.65,0,0,0-2.71-2A3,3,0,0,0,393.24,549.54Z"/><path class="cls-2" d="M408.45,548.48l3.17-.48c.73-.11,1-.46,1-.92,0-.79-.67-1.47-2-1.47a2.16,2.16,0,0,0-2.3,2l-3.57-.73c.16-1.92,1.94-4.47,5.9-4.47,4.35,0,6,2.44,6,5.2v6.58a14.31,14.31,0,0,0,.16,2.08h-3.71a7.23,7.23,0,0,1-.13-1.51,4.25,4.25,0,0,1-3.79,1.89c-2.95,0-4.66-2-4.66-4.09C404.47,550.16,406.23,548.81,408.45,548.48Zm4.14,2.49v-.59l-2.54.41c-.87.13-1.52.54-1.52,1.48,0,.71.47,1.38,1.6,1.38S412.59,553.06,412.59,551Z"/><path class="cls-2" d="M420.06,556.25v-19.6h4.12v19.6Z"/><path class="cls-2" d="M444.1,542.85a2.92,2.92,0,0,0-3.2-2.41,2.36,2.36,0,0,0-2.62,2.06c0,.92.57,1.6,1.89,1.84l2.57.49c3.66.68,5.55,3,5.55,5.77,0,3-2.51,6.06-7.09,6.06-5.31,0-7.58-3.44-7.85-6.15l3.93-.94c.16,1.76,1.35,3.3,4,3.3,1.68,0,2.71-.81,2.71-2,0-1-.78-1.68-2.06-1.93l-2.62-.48c-3.25-.63-5.23-2.79-5.23-5.63,0-3.63,3.2-6.18,6.88-6.18,4.79,0,6.6,2.87,7,5.12Z"/><path class="cls-2" d="M463.15,552.38c-.65,2.33-2.79,4.28-6.2,4.28a7.14,7.14,0,0,1-.3-14.27c4.17,0,6.74,2.57,6.74,6.91a8.28,8.28,0,0,1-.08,1.27H454a2.91,2.91,0,0,0,3.05,2.6,2.61,2.61,0,0,0,2.71-1.76Zm-3.74-4.46a2.41,2.41,0,0,0-2.7-2.28,2.56,2.56,0,0,0-2.68,2.28Z"/><path class="cls-2" d="M474.6,546.86a5.55,5.55,0,0,0-1.3-.14c-1.65,0-3.14,1-3.14,3.66v5.87H466V542.8h4v1.81a3.81,3.81,0,0,1,3.49-2,4.13,4.13,0,0,1,1.09.14Z"/><path class="cls-2" d="M485.61,556.25h-4.14L476,542.8h4.46l3.12,8.36,2.87-8.36h4.33Z"/><path class="cls-2" d="M494.84,536.28a2.41,2.41,0,1,1-2.38,2.4A2.41,2.41,0,0,1,494.84,536.28Zm-2,20V542.8h4.11v13.45Z"/><path class="cls-2" d="M503.63,549.54a3.08,3.08,0,0,0,3.14,3.33,2.77,2.77,0,0,0,2.79-2l3.63,1.11a6.38,6.38,0,0,1-6.42,4.68,7,7,0,0,1-7.23-7.12,7,7,0,0,1,7.1-7.15,6.3,6.3,0,0,1,6.47,4.69l-3.68,1.11a2.65,2.65,0,0,0-2.71-2A3,3,0,0,0,503.63,549.54Z"/><path class="cls-2" d="M527.8,552.38c-.65,2.33-2.79,4.28-6.2,4.28a7.14,7.14,0,0,1-.29-14.27c4.16,0,6.73,2.57,6.73,6.91a8.28,8.28,0,0,1-.08,1.27H518.6a2.92,2.92,0,0,0,3.06,2.6,2.59,2.59,0,0,0,2.7-1.76Zm-3.73-4.46a2.42,2.42,0,0,0-2.71-2.28,2.56,2.56,0,0,0-2.68,2.28Z"/><path class="cls-4" d="M286.25,859.62h7.8V725.93h-7.8Zm16.12,0h23.91V725.93H302.37V859.62Zm31.71-133.69V859.61H358V725.93Z"/><path class="cls-1" d="M478.66,859.63h7.8V725.93h-7.8Zm16.12-133.7v133.7h7.8V725.93ZM366.05,859.63h7.8V725.93h-7.8Zm16.12-133.7V859.62H390V725.93Z"/><path class="cls-3" d="M398,859.63h23.91V725.93H398Zm31.71,0h8.32V725.93h-8.32v133.7Zm16.11-133.7V859.62h23.92V725.93Z"/><path class="cls-5" d="M490.7,874.34,503,902.07h-7.42l-2.28-5.48H480.89l-2.06,5.48H471.5l11.18-27.73h8m.55,17.41L486.79,881l-4.07,10.78h8.53m-16.11-17.41v5.08H465.09v22.65h-6.9V879.42h-10v-5.08h27m-35.73,0,12.31,27.73H444.3L442,896.59h-12.4l-2.06,5.48h-7.33l11.18-27.73h8m.56,17.41L435.5,881l-4.06,10.78H440m-47.21-17.41H405q7.09,0,11.19,3.89a13.09,13.09,0,0,1,4.13,10q0,6.45-4.18,10.15t-11.91,3.67H392.76V874.34m6.9,5.08V897h4.51q4.38,0,6.71-2.41a8.83,8.83,0,0,0,2.32-6.37,8.69,8.69,0,0,0-2.36-6.43q-2.34-2.35-6.75-2.36h-4.43m-13.29-5.08v27.73h-6.91V874.34h6.91m-13.08,0-9,13,12.24,14.71h-8.65l-11-13v13H350V874.34h6.91v12.49l8.81-12.49h7.6m-29.71,0v27.73h-6.91V874.34h6.91m-34,10L301,902.42h-3l-12.18-28.08h7.32l6.53,15.32,7.13-15.32h5.55l7.13,15.32L326,874.34h7.32l-12.15,28.08h-3l-8.62-18.08"/><path class="cls-6" d="M1150.69,619.92l-85.62-10.79c-3.88-32.29,2-63.8,12-95.14l85.63,10.79A176.11,176.11,0,0,0,1150.69,619.92Z"/><rect class="cls-3" x="1112" y="505.12" width="5.67" height="52.74" transform="translate(448.09 1571.1) rotate(-82.82)"/><rect class="cls-7" x="1110.8" y="507.83" width="2.83" height="71.48" transform="translate(433.81 1579.07) rotate(-82.82)"/><rect class="cls-7" x="1109.65" y="516.91" width="2.83" height="71.48" transform="translate(423.8 1585.88) rotate(-82.82)"/><rect class="cls-7" x="1108.51" y="525.99" width="2.83" height="71.48" transform="translate(413.79 1592.69) rotate(-82.82)"/><rect class="cls-7" x="1107.36" y="535.07" width="2.83" height="71.48" transform="translate(403.78 1599.5) rotate(-82.82)"/><rect class="cls-7" x="1106.22" y="544.15" width="2.83" height="71.48" transform="translate(393.77 1606.31) rotate(-82.82)"/><rect class="cls-7" x="1105.07" y="553.24" width="2.83" height="71.48" transform="translate(383.75 1613.12) rotate(-82.82)"/><rect class="cls-7" x="1103.93" y="562.32" width="2.83" height="71.48" transform="translate(373.74 1619.93) rotate(-82.82)"/><path class="cls-8" d="M1110.15,588.12,1030,556c4.41-32.22,18.06-61.22,35.67-89l80.11,32.11A176,176,0,0,0,1110.15,588.12Z"/><rect class="cls-3" x="1095" y="467.12" width="5.67" height="52.74" transform="translate(231.32 1328.91) rotate(-68.16)"/><rect class="cls-7" x="1090.82" y="468.77" width="2.83" height="71.48" transform="translate(217.58 1330.64) rotate(-68.16)"/><rect class="cls-7" x="1087.41" y="477.27" width="2.83" height="71.48" transform="translate(207.55 1332.82) rotate(-68.16)"/><rect class="cls-7" x="1084.01" y="485.76" width="2.83" height="71.48" transform="translate(197.53 1334.99) rotate(-68.16)"/><rect class="cls-7" x="1080.6" y="494.26" width="2.83" height="71.48" transform="translate(187.5 1337.17) rotate(-68.16)"/><rect class="cls-7" x="1077.2" y="502.76" width="2.83" height="71.48" transform="translate(177.48 1339.34) rotate(-68.16)"/><rect class="cls-7" x="1073.79" y="511.25" width="2.83" height="71.48" transform="translate(167.45 1341.51) rotate(-68.16)"/><rect class="cls-7" x="1070.39" y="519.75" width="2.83" height="71.48" transform="translate(157.43 1343.69) rotate(-68.16)"/><path class="cls-6" d="M1090.33,595.85H1004c-7.89-31.54-6-63.55,0-95.89h86.3A176.19,176.19,0,0,0,1090.33,595.85Z"/><rect class="cls-3" x="1017.33" y="509.76" width="52.74" height="5.67"/><rect class="cls-7" x="1006.87" y="523.49" width="71.48" height="2.83"/><rect class="cls-7" x="1006.87" y="532.65" width="71.48" height="2.83"/><rect class="cls-7" x="1006.87" y="541.8" width="71.48" height="2.83"/><rect class="cls-7" x="1006.87" y="550.95" width="71.48" height="2.83"/><rect class="cls-7" x="1006.87" y="560.11" width="71.48" height="2.83"/><rect class="cls-7" x="1006.87" y="569.26" width="71.48" height="2.83"/><rect class="cls-7" x="1006.87" y="578.41" width="71.48" height="2.83"/><path class="cls-3" d="M1032.16,576.71l-29.73-23.12a3.41,3.41,0,0,0-2.94-1.7h-16a3.39,3.39,0,0,0-3.39,3.39h0V696.92a11,11,0,0,0,11,11h164.73a11,11,0,0,0,11-11V586.71a10,10,0,0,0-10-10Z"/><rect class="cls-4" x="1131.31" y="609.55" width="29.88" height="10.46"/><line class="cls-9" x1="74" y1="145.34" x2="74" y2="239"/><polygon class="cls-10" points="57.64 158.59 60.57 161.32 74 146.87 87.43 161.32 90.36 158.59 74 141 57.64 158.59"/><line class="cls-9" x1="714" y1="145.34" x2="714" y2="239"/><polygon class="cls-10" points="697.64 158.59 700.57 161.32 714 146.87 727.43 161.32 730.36 158.59 714 141 697.64 158.59"/><line class="cls-9" x1="301" y1="234.66" x2="301" y2="141"/><polygon class="cls-10" points="317.36 221.41 314.43 218.68 301 233.13 287.57 218.68 284.64 221.41 301 239 317.36 221.41"/><line class="cls-9" x1="487" y1="234.66" x2="487" y2="141"/><polygon class="cls-10" points="503.36 221.41 500.43 218.68 487 233.13 473.57 218.68 470.64 221.41 487 239 503.36 221.41"/><line class="cls-9" x1="714" y1="383.34" x2="714" y2="477"/><polygon class="cls-10" points="697.64 396.59 700.57 399.32 714 384.87 727.43 399.32 730.36 396.59 714 379 697.64 396.59"/><line class="cls-9" x1="487" y1="472.66" x2="487" y2="379"/><polygon class="cls-10" points="503.36 459.41 500.43 456.68 487 471.13 473.57 456.68 470.64 459.41 487 477 503.36 459.41"/><line class="cls-9" x1="1185" y1="383.34" x2="1185" y2="477"/><polygon class="cls-10" points="1168.64 396.59 1171.57 399.32 1185 384.87 1198.43 399.32 1201.36 396.59 1185 379 1168.64 396.59"/><line class="cls-9" x1="958" y1="472.66" x2="958" y2="379"/><polygon class="cls-10" points="974.36 459.41 971.43 456.68 958 471.13 944.57 456.68 941.64 459.41 958 477 974.36 459.41"/><line class="cls-9" x1="74" y1="384.34" x2="74" y2="478"/><polygon class="cls-10" points="57.64 397.59 60.57 400.32 74 385.87 87.43 400.32 90.36 397.59 74 380 57.64 397.59"/><line class="cls-9" x1="301" y1="473.66" x2="301" y2="380"/><polygon class="cls-10" points="317.36 460.41 314.43 457.68 301 472.13 287.57 457.68 284.64 460.41 301 478 317.36 460.41"/><line class="cls-9" x1="302" y1="624.34" x2="302" y2="718"/><polygon class="cls-10" points="285.64 637.59 288.57 640.32 302 625.87 315.43 640.32 318.36 637.59 302 620 285.64 637.59"/><line class="cls-9" x1="487" y1="713.66" x2="487" y2="620"/><polygon class="cls-10" points="503.36 700.41 500.43 697.68 487 712.13 473.57 697.68 470.64 700.41 487 718 503.36 700.41"/><line class="cls-9" x1="881.66" y1="263" x2="788" y2="263"/><polygon class="cls-10" points="868.41 246.64 865.68 249.57 880.13 263 865.68 276.43 868.41 279.36 886 263 868.41 246.64"/><line class="cls-9" x1="792.34" y1="356" x2="886" y2="356"/><polygon class="cls-10" points="805.59 372.36 808.32 369.43 793.87 356 808.32 342.57 805.59 339.64 788 356 805.59 372.36"/><path class="cls-5" d="M958.48,741.81a9.72,9.72,0,0,1,10,10,9.91,9.91,0,0,1-2.16,6.39l2.35,2.57-2.81,2.38-2.36-2.6a10.2,10.2,0,0,1-5,1.25,10,10,0,0,1,0-20Zm0,15.79a6.05,6.05,0,0,0,1.95-.33l-2.82-3.08,2.85-2.39,2.81,3.09a6.27,6.27,0,0,0,.73-3.09,5.54,5.54,0,1,0-5.52,5.8Z"/><path class="cls-5" d="M979.67,760.06a4.19,4.19,0,0,1-3.6,1.65,4.93,4.93,0,0,1-5.12-5.25V748h4.12v7.63a2.09,2.09,0,0,0,2.16,2.33,2.15,2.15,0,0,0,2.25-2.3V748h4.11v11a19.82,19.82,0,0,0,.14,2.41h-4A8.88,8.88,0,0,1,979.67,760.06Z"/><path class="cls-5" d="M999.43,757.54c-.65,2.33-2.79,4.28-6.2,4.28a7.14,7.14,0,0,1-.3-14.27c4.17,0,6.74,2.57,6.74,6.91a8.28,8.28,0,0,1-.08,1.27h-9.37a2.92,2.92,0,0,0,3.06,2.6,2.61,2.61,0,0,0,2.71-1.76Zm-3.74-4.46A2.42,2.42,0,0,0,993,750.8a2.57,2.57,0,0,0-2.68,2.28Z"/><path class="cls-5" d="M1004.7,757a1.93,1.93,0,0,0,2.11,1.82c1.06,0,1.57-.57,1.57-1.17s-.32-.89-1.32-1.11l-1.55-.35c-2.87-.62-4-2.25-4-4.14,0-2.46,2.16-4.47,5.17-4.47,3.9,0,5.25,2.44,5.38,4l-3.41.62a1.76,1.76,0,0,0-1.92-1.65,1.31,1.31,0,0,0-1.46,1.17c0,.56.46.89,1.06,1l1.78.35c2.79.57,4.14,2.24,4.14,4.22,0,2.3-1.76,4.55-5.36,4.55-4.22,0-5.57-2.74-5.68-4.22Z"/><path class="cls-5" d="M1019.86,748h2.62v3.6h-2.62v5c0,1.11.59,1.41,1.49,1.41a5.48,5.48,0,0,0,1.08-.13v3.41a4.9,4.9,0,0,1-2.14.38c-2.79,0-4.49-1.66-4.49-4.33v-5.77h-2.39V748h.68a2,2,0,0,0,2.08-2.19V744h3.69Z"/><path class="cls-5" d="M1027.43,741.44a2.41,2.41,0,1,1-2.38,2.4A2.42,2.42,0,0,1,1027.43,741.44Zm-2,20V748h4.12v13.45Z"/><path class="cls-5" d="M1046.43,754.67a7.15,7.15,0,1,1-7.14-7.12A7,7,0,0,1,1046.43,754.67Zm-4.11,0a3,3,0,1,0-6.06,0,3.05,3.05,0,0,0,3,3.36A3,3,0,0,0,1042.32,754.67Z"/><path class="cls-5" d="M1053.2,761.41h-4.12V748h4v1.54a4.41,4.41,0,0,1,3.77-1.89c3.38,0,4.89,2.41,4.89,5.36v8.44h-4.11v-7.74a2.08,2.08,0,0,0-2.19-2.33,2.18,2.18,0,0,0-2.22,2.36Z"/><path class="cls-5" d="M1080.72,746.31v15.1h-4.28v-15.1h-5.9v-4.09h16.11v4.09Z"/><path class="cls-5" d="M1098.64,757.54c-.65,2.33-2.79,4.28-6.2,4.28a7.14,7.14,0,0,1-.3-14.27c4.17,0,6.74,2.57,6.74,6.91a8.28,8.28,0,0,1-.08,1.27h-9.37a2.93,2.93,0,0,0,3.06,2.6,2.61,2.61,0,0,0,2.71-1.76Zm-3.74-4.46a2.41,2.41,0,0,0-2.7-2.28,2.56,2.56,0,0,0-2.68,2.28Z"/><path class="cls-5" d="M1101.53,761.41V748h3.93v1.54a4.66,4.66,0,0,1,3.87-2,4.18,4.18,0,0,1,4,2.11,4.61,4.61,0,0,1,4.16-2.11c2.55,0,5,1.49,5,5.15v8.71h-4v-7.79a2,2,0,0,0-2.14-2.28,2.19,2.19,0,0,0-2.25,2.3v7.77H1110v-7.79a2.05,2.05,0,0,0-2.17-2.28,2.18,2.18,0,0,0-2.21,2.33v7.74Z"/><path class="cls-5" d="M1125.91,766.56V748h4v1.38a4.78,4.78,0,0,1,4-1.71c3.89,0,6.25,3,6.25,7s-2.65,7.06-6.42,7.06a4.71,4.71,0,0,1-3.65-1.35v6.2Zm7.1-15.22a3,3,0,0,0-3,3.33,3.06,3.06,0,1,0,6.1,0A3,3,0,0,0,1133,751.34Z"/><path class="cls-5" d="M1142.75,761.41v-19.6h4.11v19.6Z"/><path class="cls-5" d="M1153.52,753.64l3.17-.48c.73-.11,1-.46,1-.92,0-.79-.68-1.47-2-1.47a2.18,2.18,0,0,0-2.31,2l-3.57-.73c.16-1.92,2-4.47,5.9-4.47,4.36,0,6,2.44,6,5.2v6.58a12.9,12.9,0,0,0,.16,2.08h-3.71a6.51,6.51,0,0,1-.13-1.51,4.27,4.27,0,0,1-3.79,1.89c-3,0-4.66-1.95-4.66-4.09C1149.54,755.32,1151.3,754,1153.52,753.64Zm4.14,2.49v-.59l-2.54.41c-.87.13-1.52.54-1.52,1.48,0,.71.46,1.38,1.6,1.38S1157.66,758.22,1157.66,756.13Z"/><path class="cls-5" d="M1169.92,748h2.63v3.6h-2.63v5c0,1.11.6,1.41,1.49,1.41a5.38,5.38,0,0,0,1.08-.13v3.41a4.9,4.9,0,0,1-2.14.38c-2.78,0-4.49-1.66-4.49-4.33v-5.77h-2.38V748h.68a2,2,0,0,0,2.08-2.19V744h3.68Z"/><path class="cls-5" d="M1187.54,757.54c-.65,2.33-2.79,4.28-6.2,4.28a7.14,7.14,0,0,1-.3-14.27c4.17,0,6.74,2.57,6.74,6.91a8.28,8.28,0,0,1-.08,1.27h-9.36a2.92,2.92,0,0,0,3.06,2.6,2.6,2.6,0,0,0,2.7-1.76Zm-3.74-4.46a2.41,2.41,0,0,0-2.7-2.28,2.56,2.56,0,0,0-2.68,2.28Z"/><path class="cls-5" d="M1192.81,757a1.93,1.93,0,0,0,2.12,1.82c1,0,1.57-.57,1.57-1.17s-.33-.89-1.33-1.11l-1.54-.35c-2.87-.62-4-2.25-4-4.14,0-2.46,2.17-4.47,5.17-4.47,3.9,0,5.25,2.44,5.39,4l-3.41.62a1.77,1.77,0,0,0-1.93-1.65,1.31,1.31,0,0,0-1.46,1.17c0,.56.46.89,1.06,1l1.79.35c2.78.57,4.14,2.24,4.14,4.22,0,2.3-1.76,4.55-5.36,4.55-4.23,0-5.58-2.74-5.69-4.22Z"/></g></g></svg>